<svg version="1.1" xmlns="http://www.w3.org/2000/svg" xmlns:xlink="http://www.w3.org/1999/xlink" width="448.2197265625" height="216"><defs/><g><g transform="translate(-10,-10) scale(1,1)"><rect fill="#C0C0C0" stroke="none" x="27" y="48" width="131.5908203125" height="24" opacity="0.2"/></g><g transform="translate(-10,-10) scale(1,1)"><rect fill="#C0C0C0" stroke="none" x="149.919921875" y="30" width="17.6708984375" height="22" opacity="0.2"/></g><g transform="translate(-10,-10) scale(1,1)"><rect fill="#ffffff" stroke="none" x="20" y="41" width="131.5908203125" height="24"/></g><g transform="translate(-10,-10) scale(1,1)"><path fill="none" stroke="#000000" d="M 20 41 L 151.5908203125 41 L 151.5908203125 65 L 20 65 L 20 41 Z Z" stroke-miterlimit="10"/></g><g transform="translate(-10,-10) scale(1,1)"><g><path fill="none" stroke="none"/><text fill="#000000" stroke="none" font-family="Arial" font-size="13px" font-style="italic" font-weight="bold" text-decoration="none" x="38.46728515625" y="60.5">AbstractCallable</text></g></g><g transform="translate(-10,-10) scale(1,1)"><rect fill="#ffffff" stroke="none" x="142.919921875" y="23" width="17.6708984375" height="22"/></g><g transform="translate(-10,-10) scale(1,1)"><path fill="none" stroke="#000000" d="M 142.919921875 23 L 160.5908203125 23 L 160.5908203125 45 L 142.919921875 45 L 142.919921875 23 Z Z" stroke-miterlimit="10" stroke-dasharray="3"/></g><g transform="translate(-10,-10) scale(1,1)"><g><path fill="none" stroke="none"/><text fill="#000000" stroke="none" font-family="Arial" font-size="13px" font-style="normal" font-weight="normal" text-decoration="none" x="147.919921875" y="40.5">V</text></g></g><g transform="translate(-10,-10) scale(1,1)"><path fill="#C0C0C0" stroke="none" d="M 242.803955078125 38.5 C 242.803955078125 32.1487248 247.952679878125 27 254.303955078125 27 C 260.655230278125 27 265.803955078125 32.1487248 265.803955078125 38.5 C 265.803955078125 44.8512752 260.655230278125 50 254.303955078125 50 C 247.952679878125 50 242.803955078125 44.8512752 242.803955078125 38.5 Z" opacity="0.2"/></g><g transform="translate(-10,-10) scale(1,1)"><path fill="#ffffff" stroke="none" d="M 235.803955078125 31.5 C 235.803955078125 25.1487248 240.952679878125 20 247.303955078125 20 C 253.655230278125 20 258.803955078125 25.1487248 258.803955078125 31.5 C 258.803955078125 37.8512752 253.655230278125 43 247.303955078125 43 C 240.952679878125 43 235.803955078125 37.8512752 235.803955078125 31.5 Z"/></g><g transform="translate(-10,-10) scale(1,1)"><path fill="none" stroke="#000000" d="M 235.803955078125 31.5 C 235.803955078125 25.1487248 240.952679878125 20 247.303955078125 20 C 253.655230278125 20 258.803955078125 25.1487248 258.803955078125 31.5 C 258.803955078125 37.8512752 253.655230278125 43 247.303955078125 43 C 240.952679878125 43 235.803955078125 37.8512752 235.803955078125 31.5 Z" stroke-miterlimit="10"/></g><g transform="translate(-10,-10) scale(1,1)"><g><path fill="none" stroke="none"/><text fill="#000000" stroke="none" font-family="Arial" font-size="13px" font-style="normal" font-weight="bold" text-decoration="none" x="200.693115234375" y="62.5">CallableListener</text></g></g><g transform="translate(-10,-10) scale(1,1)"><path fill="#C0C0C0" stroke="none" d="M 386.118408203125 38.5 C 386.118408203125 32.1487248 391.267133003125 27 397.618408203125 27 C 403.969683403125 27 409.118408203125 32.1487248 409.118408203125 38.5 C 409.118408203125 44.8512752 403.969683403125 50 397.618408203125 50 C 391.267133003125 50 386.118408203125 44.8512752 386.118408203125 38.5 Z" opacity="0.2"/></g><g transform="translate(-10,-10) scale(1,1)"><path fill="#ffffff" stroke="none" d="M 379.118408203125 31.5 C 379.118408203125 25.1487248 384.267133003125 20 390.618408203125 20 C 396.969683403125 20 402.118408203125 25.1487248 402.118408203125 31.5 C 402.118408203125 37.8512752 396.969683403125 43 390.618408203125 43 C 384.267133003125 43 379.118408203125 37.8512752 379.118408203125 31.5 Z"/></g><g transform="translate(-10,-10) scale(1,1)"><path fill="none" stroke="#000000" d="M 379.118408203125 31.5 C 379.118408203125 25.1487248 384.267133003125 20 390.618408203125 20 C 396.969683403125 20 402.118408203125 25.1487248 402.118408203125 31.5 C 402.118408203125 37.8512752 396.969683403125 43 390.618408203125 43 C 384.267133003125 43 379.118408203125 37.8512752 379.118408203125 31.5 Z" stroke-miterlimit="10"/></g><g transform="translate(-10,-10) scale(1,1)"><g><path fill="none" stroke="none"/><text fill="#000000" stroke="none" font-family="Arial" font-size="13px" font-style="normal" font-weight="bold" text-decoration="none" x="341.843017578125" y="62.5">ExecutorListener</text></g></g><g transform="translate(-10,-10) scale(1,1)"><rect fill="#C0C0C0" stroke="none" x="47" y="199" width="213.24072265625" height="24" opacity="0.2"/></g><g transform="translate(-10,-10) scale(1,1)"><rect fill="#C0C0C0" stroke="none" x="187.25537109375" y="151" width="81.9853515625" height="52" opacity="0.2"/></g><g transform="translate(-10,-10) scale(1,1)"><rect fill="#ffffff" stroke="none" x="40" y="192" width="213.24072265625" height="24"/></g><g transform="translate(-10,-10) scale(1,1)"><path fill="none" stroke="#000000" d="M 40 192 L 253.24072265625 192 L 253.24072265625 216 L 40 216 L 40 192 Z Z" stroke-miterlimit="10"/></g><g transform="translate(-10,-10) scale(1,1)"><g><path fill="none" stroke="none"/><text fill="#000000" stroke="none" font-family="Arial" font-size="13px" font-style="italic" font-weight="bold" text-decoration="none" x="60.6318359375" y="211.5">SingleThreadExecutorService</text></g></g><g transform="translate(-10,-10) scale(1,1)"><rect fill="#ffffff" stroke="none" x="180.25537109375" y="144" width="81.9853515625" height="52"/></g><g transform="translate(-10,-10) scale(1,1)"><path fill="none" stroke="#000000" d="M 180.25537109375 144 L 262.24072265625 144 L 262.24072265625 196 L 180.25537109375 196 L 180.25537109375 144 Z Z" stroke-miterlimit="10" stroke-dasharray="3"/></g><g transform="translate(-10,-10) scale(1,1)"><g><path fill="none" stroke="none"/><text fill="#000000" stroke="none" font-family="Arial" font-size="13px" font-style="normal" font-weight="normal" text-decoration="none" x="185.25537109375" y="161.5">V</text></g></g><g transform="translate(-10,-10) scale(1,1)"><g><path fill="none" stroke="none"/><text fill="#000000" stroke="none" font-family="Arial" font-size="13px" font-style="normal" font-weight="normal" text-decoration="none" x="185.25537109375" y="176.5">Z</text></g></g><g transform="translate(-10,-10) scale(1,1)"><g><path fill="none" stroke="none"/><text fill="#000000" stroke="none" font-family="Arial" font-size="13px" font-style="normal" font-weight="normal" text-decoration="none" x="185.25537109375" y="191.5">E: Exception</text></g></g><g transform="translate(-10,-10) scale(1,1)"><path fill="none" stroke="#000000" d="M 188 143 Q 248 84 247.31578947368422 43" stroke-miterlimit="10"/></g><g transform="translate(-10,-10) scale(1,1)"><path fill="none" stroke="#000000" d="M 128 143 Q 91 84 91 66" stroke-miterlimit="10"/></g><g transform="translate(-10,-10) scale(1,1)"><path fill="none" stroke="#000000" d="M 95.20951775601598 76.16267485762415 L 91 66 L 86.79048224398402 76.16267485762415" stroke-miterlimit="10"/></g><g transform="translate(-10,-10) scale(1,1)"><g><path fill="none" stroke="none"/><text fill="#000000" stroke="none" font-family="Arial" font-size="13px" font-style="normal" font-weight="normal" text-decoration="none" x="52" y="98">-callable</text></g></g></g></svg>