<svg version="1.1" xmlns="http://www.w3.org/2000/svg" xmlns:xlink="http://www.w3.org/1999/xlink" width="399.75146484375" height="123"><defs/><g><g transform="translate(4,-10) scale(1,1)"><rect fill="#C0C0C0" stroke="none" x="113.507568359375" y="106" width="49.44091796875" height="24" opacity="0.2"/></g><g transform="translate(4,-10) scale(1,1)"><rect fill="#ffffff" stroke="none" x="106.507568359375" y="99" width="49.44091796875" height="24"/></g><g transform="translate(4,-10) scale(1,1)"><path fill="none" stroke="#000000" d="M 106.507568359375 99 L 155.948486328125 99 L 155.948486328125 123 L 106.507568359375 123 L 106.507568359375 99 Z Z" stroke-miterlimit="10"/></g><g transform="translate(4,-10) scale(1,1)"><g><path fill="none" stroke="none"/><text fill="#000000" stroke="none" font-family="Arial" font-size="13px" font-style="normal" font-weight="bold" text-decoration="none" x="112.073974609375" y="118.5">Debug</text></g></g><g transform="translate(4,-10) scale(1,1)"><rect fill="#C0C0C0" stroke="none" x="27" y="32.5" width="95.72802734375" height="37" opacity="0.2"/></g><g transform="translate(4,-10) scale(1,1)"><rect fill="#ffffff" stroke="none" x="20" y="25.5" width="95.72802734375" height="37"/></g><g transform="translate(4,-10) scale(1,1)"><path fill="none" stroke="#000000" d="M 20 25.5 L 115.72802734375 25.5 L 115.72802734375 62.5 L 20 62.5 L 20 25.5 Z Z" stroke-miterlimit="10"/></g><g transform="translate(4,-10) scale(1,1)"><g><path fill="none" stroke="none"/><text fill="#000000" stroke="none" font-family="Arial" font-size="13px" font-style="normal" font-weight="normal" text-decoration="none" x="24.5" y="43">«enumeration»</text></g></g><g transform="translate(4,-10) scale(1,1)"><g><path fill="none" stroke="none"/><text fill="#000000" stroke="none" font-family="Arial" font-size="13px" font-style="normal" font-weight="bold" text-decoration="none" x="32.450439453125" y="58">DebugMode</text></g></g><g transform="translate(4,-10) scale(1,1)"><path fill="none" stroke="#000000" d="M 106 100 Q 68 84 67 64" stroke-miterlimit="10"/></g><g transform="translate(4,-10) scale(1,1)"><path fill="none" stroke="#000000" d="M 71.71176546853414 73.93978199808875 L 67 64 L 63.30323405979657 74.36020856852564" stroke-miterlimit="10"/></g><g transform="translate(4,-10) scale(1,1)"><g><path fill="none" stroke="none"/><text fill="#000000" stroke="none" font-family="Arial" font-size="13px" font-style="normal" font-weight="normal" text-decoration="none" x="17" y="97">-debugMode</text></g></g><g transform="translate(4,-10) scale(1,1)"><g><path fill="none" stroke="none"/><text fill="#000000" stroke="none" font-family="Arial" font-size="13px" font-style="normal" font-weight="normal" text-decoration="none" x="6" y="100">{static=true}</text></g></g><g transform="translate(4,-10) scale(1,1)"><rect fill="#C0C0C0" stroke="none" x="153.72802734375" y="32.5" width="95.72802734375" height="37" opacity="0.2"/></g><g transform="translate(4,-10) scale(1,1)"><rect fill="#ffffff" stroke="none" x="146.72802734375" y="25.5" width="95.72802734375" height="37"/></g><g transform="translate(4,-10) scale(1,1)"><path fill="none" stroke="#000000" d="M 146.72802734375 25.5 L 242.4560546875 25.5 L 242.4560546875 62.5 L 146.72802734375 62.5 L 146.72802734375 25.5 Z Z" stroke-miterlimit="10"/></g><g transform="translate(4,-10) scale(1,1)"><g><path fill="none" stroke="none"/><text fill="#000000" stroke="none" font-family="Arial" font-size="13px" font-style="normal" font-weight="normal" text-decoration="none" x="151.22802734375" y="43">«enumeration»</text></g></g><g transform="translate(4,-10) scale(1,1)"><g><path fill="none" stroke="none"/><text fill="#000000" stroke="none" font-family="Arial" font-size="13px" font-style="normal" font-weight="bold" text-decoration="none" x="158.81982421875" y="58">OutputMode</text></g></g><g transform="translate(4,-10) scale(1,1)"><path fill="none" stroke="#000000" d="M 157 100 Q 195 84 194 64" stroke-miterlimit="10"/></g><g transform="translate(4,-10) scale(1,1)"><path fill="none" stroke="#000000" d="M 198.71176546853414 73.93978199808875 L 194 64 L 190.30323405979658 74.36020856852564" stroke-miterlimit="10"/></g><g transform="translate(4,-10) scale(1,1)"><g><path fill="none" stroke="none"/><text fill="#000000" stroke="none" font-family="Arial" font-size="13px" font-style="normal" font-weight="normal" text-decoration="none" x="144" y="97">-outputMode</text></g></g><g transform="translate(4,-10) scale(1,1)"><g><path fill="none" stroke="none"/><text fill="#000000" stroke="none" font-family="Arial" font-size="13px" font-style="normal" font-weight="normal" text-decoration="none" x="133" y="100">{static=true}</text></g></g><g transform="translate(4,-10) scale(1,1)"><path fill="#C0C0C0" stroke="none" d="M 325.103759765625 38.5 C 325.103759765625 32.1487248 330.252484565625 27 336.603759765625 27 C 342.955034965625 27 348.103759765625 32.1487248 348.103759765625 38.5 C 348.103759765625 44.8512752 342.955034965625 50 336.603759765625 50 C 330.252484565625 50 325.103759765625 44.8512752 325.103759765625 38.5 Z" opacity="0.2"/></g><g transform="translate(4,-10) scale(1,1)"><path fill="#ffffff" stroke="none" d="M 318.103759765625 31.5 C 318.103759765625 25.1487248 323.252484565625 20 329.603759765625 20 C 335.955034965625 20 341.103759765625 25.1487248 341.103759765625 31.5 C 341.103759765625 37.8512752 335.955034965625 43 329.603759765625 43 C 323.252484565625 43 318.103759765625 37.8512752 318.103759765625 31.5 Z"/></g><g transform="translate(4,-10) scale(1,1)"><path fill="none" stroke="#000000" d="M 318.103759765625 31.5 C 318.103759765625 25.1487248 323.252484565625 20 329.603759765625 20 C 335.955034965625 20 341.103759765625 25.1487248 341.103759765625 31.5 C 341.103759765625 37.8512752 335.955034965625 43 329.603759765625 43 C 323.252484565625 43 318.103759765625 37.8512752 318.103759765625 31.5 Z" stroke-miterlimit="10"/></g><g transform="translate(4,-10) scale(1,1)"><g><path fill="none" stroke="none"/><text fill="#000000" stroke="none" font-family="Arial" font-size="13px" font-style="normal" font-weight="bold" text-decoration="none" x="281.18701171875" y="62.5">SimpleDebugger</text></g></g></g></svg>