<svg version="1.1" xmlns="http://www.w3.org/2000/svg" xmlns:xlink="http://www.w3.org/1999/xlink" width="200.21533203125" height="68"><defs/><g><g transform="translate(-10,-10) scale(1,1)"><path fill="#C0C0C0" stroke="none" d="M 105.607666015625 38.5 C 105.607666015625 32.1487248 110.756390815625 27 117.107666015625 27 C 123.458941215625 27 128.607666015625 32.1487248 128.607666015625 38.5 C 128.607666015625 44.8512752 123.458941215625 50 117.107666015625 50 C 110.756390815625 50 105.607666015625 44.8512752 105.607666015625 38.5 Z" opacity="0.2"/></g><g transform="translate(-10,-10) scale(1,1)"><path fill="#ffffff" stroke="none" d="M 98.607666015625 31.5 C 98.607666015625 25.1487248 103.756390815625 20 110.107666015625 20 C 116.458941215625 20 121.607666015625 25.1487248 121.607666015625 31.5 C 121.607666015625 37.8512752 116.458941215625 43 110.107666015625 43 C 103.756390815625 43 98.607666015625 37.8512752 98.607666015625 31.5 Z"/></g><g transform="translate(-10,-10) scale(1,1)"><path fill="none" stroke="#000000" d="M 98.607666015625 31.5 C 98.607666015625 25.1487248 103.756390815625 20 110.107666015625 20 C 116.458941215625 20 121.607666015625 25.1487248 121.607666015625 31.5 C 121.607666015625 37.8512752 116.458941215625 43 110.107666015625 43 C 103.756390815625 43 98.607666015625 37.8512752 98.607666015625 31.5 Z" stroke-miterlimit="10"/></g><g transform="translate(-10,-10) scale(1,1)"><g><path fill="none" stroke="none"/><text fill="#000000" stroke="none" font-family="Arial" font-size="13px" font-style="normal" font-weight="bold" text-decoration="none" x="30.99365234375" y="62.5">RestrictedTextFieldListener</text></g></g></g></svg>