<svg version="1.1" xmlns="http://www.w3.org/2000/svg" xmlns:xlink="http://www.w3.org/1999/xlink" width="568.333984375" height="229"><defs/><g><g transform="translate(-10,-10) scale(1,1)"><path fill="#C0C0C0" stroke="none" d="M 289.6669921875 38.5 C 289.6669921875 32.1487248 294.8157169875 27 301.1669921875 27 C 307.5182673875 27 312.6669921875 32.1487248 312.6669921875 38.5 C 312.6669921875 44.8512752 307.5182673875 50 301.1669921875 50 C 294.8157169875 50 289.6669921875 44.8512752 289.6669921875 38.5 Z" opacity="0.2"/></g><g transform="translate(-10,-10) scale(1,1)"><path fill="#ffffff" stroke="none" d="M 282.6669921875 31.5 C 282.6669921875 25.1487248 287.8157169875 20 294.1669921875 20 C 300.5182673875 20 305.6669921875 25.1487248 305.6669921875 31.5 C 305.6669921875 37.8512752 300.5182673875 43 294.1669921875 43 C 287.8157169875 43 282.6669921875 37.8512752 282.6669921875 31.5 Z"/></g><g transform="translate(-10,-10) scale(1,1)"><path fill="none" stroke="#000000" d="M 282.6669921875 31.5 C 282.6669921875 25.1487248 287.8157169875 20 294.1669921875 20 C 300.5182673875 20 305.6669921875 25.1487248 305.6669921875 31.5 C 305.6669921875 37.8512752 300.5182673875 43 294.1669921875 43 C 287.8157169875 43 282.6669921875 37.8512752 282.6669921875 31.5 Z" stroke-miterlimit="10"/></g><g transform="translate(-10,-10) scale(1,1)"><g><path fill="none" stroke="none"/><text fill="#000000" stroke="none" font-family="Arial" font-size="13px" font-style="normal" font-weight="bold" text-decoration="none" x="260.56884765625" y="62.5">ChartModel</text></g></g><g transform="translate(-10,-10) scale(1,1)"><rect fill="#C0C0C0" stroke="none" x="27" y="212" width="248.6669921875" height="24" opacity="0.2"/></g><g transform="translate(-10,-10) scale(1,1)"><rect fill="#C0C0C0" stroke="none" x="56" y="194" width="228.6669921875" height="22" opacity="0.2"/></g><g transform="translate(-10,-10) scale(1,1)"><rect fill="#ffffff" stroke="none" x="20" y="205" width="248.6669921875" height="24"/></g><g transform="translate(-10,-10) scale(1,1)"><path fill="none" stroke="#000000" d="M 20 205 L 268.6669921875 205 L 268.6669921875 229 L 20 229 L 20 205 Z Z" stroke-miterlimit="10"/></g><g transform="translate(-10,-10) scale(1,1)"><g><path fill="none" stroke="none"/><text fill="#000000" stroke="none" font-family="Arial" font-size="13px" font-style="normal" font-weight="bold" text-decoration="none" x="100.620361328125" y="224.5">DotChartModel</text></g></g><g transform="translate(-10,-10) scale(1,1)"><rect fill="#ffffff" stroke="none" x="49" y="187" width="228.6669921875" height="22"/></g><g transform="translate(-10,-10) scale(1,1)"><path fill="none" stroke="#000000" d="M 49 187 L 277.6669921875 187 L 277.6669921875 209 L 49 209 L 49 187 Z Z" stroke-miterlimit="10" stroke-dasharray="3"/></g><g transform="translate(-10,-10) scale(1,1)"><g><path fill="none" stroke="none"/><text fill="#000000" stroke="none" font-family="Arial" font-size="13px" font-style="normal" font-weight="normal" text-decoration="none" x="54" y="204.5">S: Number &amp; Comparable&lt;? super S&gt;</text></g></g><g transform="translate(-10,-10) scale(1,1)"><rect fill="#C0C0C0" stroke="none" x="316.6669921875" y="212" width="248.6669921875" height="24" opacity="0.2"/></g><g transform="translate(-10,-10) scale(1,1)"><rect fill="#C0C0C0" stroke="none" x="345.6669921875" y="194" width="228.6669921875" height="22" opacity="0.2"/></g><g transform="translate(-10,-10) scale(1,1)"><rect fill="#ffffff" stroke="none" x="309.6669921875" y="205" width="248.6669921875" height="24"/></g><g transform="translate(-10,-10) scale(1,1)"><path fill="none" stroke="#000000" d="M 309.6669921875 205 L 558.333984375 205 L 558.333984375 229 L 309.6669921875 229 L 309.6669921875 205 Z Z" stroke-miterlimit="10"/></g><g transform="translate(-10,-10) scale(1,1)"><g><path fill="none" stroke="none"/><text fill="#000000" stroke="none" font-family="Arial" font-size="13px" font-style="normal" font-weight="bold" text-decoration="none" x="376.563720703125" y="224.5">OneDimChartModel</text></g></g><g transform="translate(-10,-10) scale(1,1)"><rect fill="#ffffff" stroke="none" x="338.6669921875" y="187" width="228.6669921875" height="22"/></g><g transform="translate(-10,-10) scale(1,1)"><path fill="none" stroke="#000000" d="M 338.6669921875 187 L 567.333984375 187 L 567.333984375 209 L 338.6669921875 209 L 338.6669921875 187 Z Z" stroke-miterlimit="10" stroke-dasharray="3"/></g><g transform="translate(-10,-10) scale(1,1)"><g><path fill="none" stroke="none"/><text fill="#000000" stroke="none" font-family="Arial" font-size="13px" font-style="normal" font-weight="normal" text-decoration="none" x="343.6669921875" y="204.5">S: Number &amp; Comparable&lt;? super S&gt;</text></g></g><g transform="translate(-10,-10) scale(1,1)"><rect fill="#C0C0C0" stroke="none" x="171.83349609375" y="139" width="248.6669921875" height="24" opacity="0.2"/></g><g transform="translate(-10,-10) scale(1,1)"><rect fill="#C0C0C0" stroke="none" x="200.83349609375" y="106" width="228.6669921875" height="37" opacity="0.2"/></g><g transform="translate(-10,-10) scale(1,1)"><rect fill="#ffffff" stroke="none" x="164.83349609375" y="132" width="248.6669921875" height="24"/></g><g transform="translate(-10,-10) scale(1,1)"><path fill="none" stroke="#000000" d="M 164.83349609375 132 L 413.50048828125 132 L 413.50048828125 156 L 164.83349609375 156 L 164.83349609375 132 Z Z" stroke-miterlimit="10"/></g><g transform="translate(-10,-10) scale(1,1)"><g><path fill="none" stroke="none"/><text fill="#000000" stroke="none" font-family="Arial" font-size="13px" font-style="normal" font-weight="bold" text-decoration="none" x="234.97705078125" y="151.5">ScatterChartModel</text></g></g><g transform="translate(-10,-10) scale(1,1)"><rect fill="#ffffff" stroke="none" x="193.83349609375" y="99" width="228.6669921875" height="37"/></g><g transform="translate(-10,-10) scale(1,1)"><path fill="none" stroke="#000000" d="M 193.83349609375 99 L 422.50048828125 99 L 422.50048828125 136 L 193.83349609375 136 L 193.83349609375 99 Z Z" stroke-miterlimit="10" stroke-dasharray="3"/></g><g transform="translate(-10,-10) scale(1,1)"><g><path fill="none" stroke="none"/><text fill="#000000" stroke="none" font-family="Arial" font-size="13px" font-style="normal" font-weight="normal" text-decoration="none" x="198.83349609375" y="116.5">S: Number &amp; Comparable&lt;? super S&gt;</text></g></g><g transform="translate(-10,-10) scale(1,1)"><g><path fill="none" stroke="none"/><text fill="#000000" stroke="none" font-family="Arial" font-size="13px" font-style="normal" font-weight="normal" text-decoration="none" x="198.83349609375" y="131.5">T: Number &amp; Comparable&lt;? super T&gt;</text></g></g><g transform="translate(-10,-10) scale(1,1)"><path fill="none" stroke="#000000" d="M 150 186 Q 150 172 198 157" stroke-miterlimit="10"/></g><g transform="translate(-10,-10) scale(1,1)"><path fill="#FFFFFF" stroke="none" d="M 181.11104840979812 171.09834437740182 L 198 157 L 176.08867289067285 155.026742716201"/></g><g transform="translate(-10,-10) scale(1,1)"><path fill="none" stroke="#000000" d="M 181.11104840979812 171.09834437740182 L 198 157 L 176.08867289067285 155.026742716201 L 181.11104840979812 171.09834437740182" stroke-miterlimit="10"/></g><g transform="translate(-10,-10) scale(1,1)"><path fill="none" stroke="#000000" d="M 440 186 Q 440 172 391 157" stroke-miterlimit="10"/></g><g transform="translate(-10,-10) scale(1,1)"><path fill="#FFFFFF" stroke="none" d="M 412.89947034503234 154.8992385649367 L 391 157 L 407.9707266417545 170.99980132897764"/></g><g transform="translate(-10,-10) scale(1,1)"><path fill="none" stroke="#000000" d="M 412.89947034503234 154.8992385649367 L 391 157 L 407.9707266417545 170.99980132897764 L 412.89947034503234 154.8992385649367" stroke-miterlimit="10"/></g><g transform="translate(-10,-10) scale(1,1)"><path fill="none" stroke="#000000" d="M 295 98 Q 295 84 294.3157894736842 43" stroke-miterlimit="10"/></g></g></svg>