<svg version="1.1" xmlns="http://www.w3.org/2000/svg" xmlns:xlink="http://www.w3.org/1999/xlink" width="866.12890625" height="59"><defs/><g><g transform="translate(-10,-10) scale(1,1)"><rect fill="#C0C0C0" stroke="none" x="27" y="34.5" width="145.525390625" height="24" opacity="0.2"/></g><g transform="translate(-10,-10) scale(1,1)"><rect fill="#ffffff" stroke="none" x="20" y="27.5" width="145.525390625" height="24"/></g><g transform="translate(-10,-10) scale(1,1)"><path fill="none" stroke="#000000" d="M 20 27.5 L 165.525390625 27.5 L 165.525390625 51.5 L 20 51.5 L 20 27.5 Z Z" stroke-miterlimit="10"/></g><g transform="translate(-10,-10) scale(1,1)"><g><path fill="none" stroke="none"/><text fill="#000000" stroke="none" font-family="Arial" font-size="13px" font-style="normal" font-weight="bold" text-decoration="none" x="29.171875" y="47">JButtonTableExample</text></g></g><g transform="translate(-10,-10) scale(1,1)"><rect fill="#C0C0C0" stroke="none" x="203.525390625" y="27" width="31.62109375" height="15" opacity="0.2"/></g><g transform="translate(-10,-10) scale(1,1)"><rect fill="#C0C0C0" stroke="none" x="203.525390625" y="41" width="79.052734375" height="25" opacity="0.2"/></g><g transform="translate(-10,-10) scale(1,1)"><rect fill="#ffffff" stroke="none" x="196.525390625" y="35" width="79.052734375" height="24"/></g><g transform="translate(-10,-10) scale(1,1)"><path fill="none" stroke="#000000" d="M 196.525390625 35 L 275.578125 35 L 275.578125 59 L 196.525390625 59 L 196.525390625 35 Z Z" stroke-miterlimit="10"/></g><g transform="translate(-10,-10) scale(1,1)"><rect fill="#ffffff" stroke="none" x="196.525390625" y="20" width="31.62109375" height="15"/></g><g transform="translate(-10,-10) scale(1,1)"><path fill="none" stroke="#000000" d="M 196.525390625 20 L 228.146484375 20 L 228.146484375 35 L 196.525390625 35 L 196.525390625 20 Z Z" stroke-miterlimit="10"/></g><g transform="translate(-10,-10) scale(1,1)"><rect fill="#ffffff" stroke="none" x="196.525390625" y="34" width="79.052734375" height="25"/></g><g transform="translate(-10,-10) scale(1,1)"><path fill="none" stroke="#000000" d="M 196.525390625 34 L 275.578125 34 L 275.578125 59 L 196.525390625 59 L 196.525390625 34 Z Z" stroke-miterlimit="10"/></g><g transform="translate(-10,-10) scale(1,1)"><g><path fill="none" stroke="none"/><text fill="#000000" stroke="none" font-family="Arial" font-size="13px" font-style="normal" font-weight="bold" text-decoration="none" x="203.891357421875" y="54.5">component</text></g></g><g transform="translate(-10,-10) scale(1,1)"><rect fill="#C0C0C0" stroke="none" x="313.578125" y="27" width="26.720703125" height="15" opacity="0.2"/></g><g transform="translate(-10,-10) scale(1,1)"><rect fill="#C0C0C0" stroke="none" x="313.578125" y="41" width="66.8017578125" height="25" opacity="0.2"/></g><g transform="translate(-10,-10) scale(1,1)"><rect fill="#ffffff" stroke="none" x="306.578125" y="35" width="66.8017578125" height="24"/></g><g transform="translate(-10,-10) scale(1,1)"><path fill="none" stroke="#000000" d="M 306.578125 35 L 373.3798828125 35 L 373.3798828125 59 L 306.578125 59 L 306.578125 35 Z Z" stroke-miterlimit="10"/></g><g transform="translate(-10,-10) scale(1,1)"><rect fill="#ffffff" stroke="none" x="306.578125" y="20" width="26.720703125" height="15"/></g><g transform="translate(-10,-10) scale(1,1)"><path fill="none" stroke="#000000" d="M 306.578125 20 L 333.298828125 20 L 333.298828125 35 L 306.578125 35 L 306.578125 20 Z Z" stroke-miterlimit="10"/></g><g transform="translate(-10,-10) scale(1,1)"><rect fill="#ffffff" stroke="none" x="306.578125" y="34" width="66.8017578125" height="25"/></g><g transform="translate(-10,-10) scale(1,1)"><path fill="none" stroke="#000000" d="M 306.578125 34 L 373.3798828125 34 L 373.3798828125 59 L 306.578125 59 L 306.578125 34 Z Z" stroke-miterlimit="10"/></g><g transform="translate(-10,-10) scale(1,1)"><g><path fill="none" stroke="none"/><text fill="#000000" stroke="none" font-family="Arial" font-size="13px" font-style="normal" font-weight="bold" text-decoration="none" x="313.245849609375" y="54.5">diagrams</text></g></g><g transform="translate(-10,-10) scale(1,1)"><rect fill="#C0C0C0" stroke="none" x="411.3798828125" y="27" width="19.600000000000023" height="15" opacity="0.2"/></g><g transform="translate(-10,-10) scale(1,1)"><rect fill="#C0C0C0" stroke="none" x="411.3798828125" y="41" width="49" height="25" opacity="0.2"/></g><g transform="translate(-10,-10) scale(1,1)"><rect fill="#ffffff" stroke="none" x="404.3798828125" y="35" width="49" height="24"/></g><g transform="translate(-10,-10) scale(1,1)"><path fill="none" stroke="#000000" d="M 404.3798828125 35 L 453.3798828125 35 L 453.3798828125 59 L 404.3798828125 59 L 404.3798828125 35 Z Z" stroke-miterlimit="10"/></g><g transform="translate(-10,-10) scale(1,1)"><rect fill="#ffffff" stroke="none" x="404.3798828125" y="20" width="19.600000000000023" height="15"/></g><g transform="translate(-10,-10) scale(1,1)"><path fill="none" stroke="#000000" d="M 404.3798828125 20 L 423.9798828125 20 L 423.9798828125 35 L 404.3798828125 35 L 404.3798828125 20 Z Z" stroke-miterlimit="10"/></g><g transform="translate(-10,-10) scale(1,1)"><rect fill="#ffffff" stroke="none" x="404.3798828125" y="34" width="49" height="25"/></g><g transform="translate(-10,-10) scale(1,1)"><path fill="none" stroke="#000000" d="M 404.3798828125 34 L 453.3798828125 34 L 453.3798828125 59 L 404.3798828125 59 L 404.3798828125 34 Z Z" stroke-miterlimit="10"/></g><g transform="translate(-10,-10) scale(1,1)"><g><path fill="none" stroke="none"/><text fill="#000000" stroke="none" font-family="Arial" font-size="13px" font-style="normal" font-weight="bold" text-decoration="none" x="411.53173828125" y="54.5">dialog</text></g></g><g transform="translate(-10,-10) scale(1,1)"><rect fill="#C0C0C0" stroke="none" x="491.3798828125" y="27" width="19.600000000000023" height="15" opacity="0.2"/></g><g transform="translate(-10,-10) scale(1,1)"><rect fill="#C0C0C0" stroke="none" x="491.3798828125" y="41" width="49" height="25" opacity="0.2"/></g><g transform="translate(-10,-10) scale(1,1)"><rect fill="#ffffff" stroke="none" x="484.3798828125" y="35" width="49" height="24"/></g><g transform="translate(-10,-10) scale(1,1)"><path fill="none" stroke="#000000" d="M 484.3798828125 35 L 533.3798828125 35 L 533.3798828125 59 L 484.3798828125 59 L 484.3798828125 35 Z Z" stroke-miterlimit="10"/></g><g transform="translate(-10,-10) scale(1,1)"><rect fill="#ffffff" stroke="none" x="484.3798828125" y="20" width="19.600000000000023" height="15"/></g><g transform="translate(-10,-10) scale(1,1)"><path fill="none" stroke="#000000" d="M 484.3798828125 20 L 503.9798828125 20 L 503.9798828125 35 L 484.3798828125 35 L 484.3798828125 20 Z Z" stroke-miterlimit="10"/></g><g transform="translate(-10,-10) scale(1,1)"><rect fill="#ffffff" stroke="none" x="484.3798828125" y="34" width="49" height="25"/></g><g transform="translate(-10,-10) scale(1,1)"><path fill="none" stroke="#000000" d="M 484.3798828125 34 L 533.3798828125 34 L 533.3798828125 59 L 484.3798828125 59 L 484.3798828125 34 Z Z" stroke-miterlimit="10"/></g><g transform="translate(-10,-10) scale(1,1)"><g><path fill="none" stroke="none"/><text fill="#000000" stroke="none" font-family="Arial" font-size="13px" font-style="normal" font-weight="bold" text-decoration="none" x="495.521240234375" y="54.5">misc</text></g></g><g transform="translate(-10,-10) scale(1,1)"><rect fill="#C0C0C0" stroke="none" x="571.3798828125" y="27" width="19.600000000000023" height="15" opacity="0.2"/></g><g transform="translate(-10,-10) scale(1,1)"><rect fill="#C0C0C0" stroke="none" x="571.3798828125" y="41" width="49" height="25" opacity="0.2"/></g><g transform="translate(-10,-10) scale(1,1)"><rect fill="#ffffff" stroke="none" x="564.3798828125" y="35" width="49" height="24"/></g><g transform="translate(-10,-10) scale(1,1)"><path fill="none" stroke="#000000" d="M 564.3798828125 35 L 613.3798828125 35 L 613.3798828125 59 L 564.3798828125 59 L 564.3798828125 35 Z Z" stroke-miterlimit="10"/></g><g transform="translate(-10,-10) scale(1,1)"><rect fill="#ffffff" stroke="none" x="564.3798828125" y="20" width="19.600000000000023" height="15"/></g><g transform="translate(-10,-10) scale(1,1)"><path fill="none" stroke="#000000" d="M 564.3798828125 20 L 583.9798828125 20 L 583.9798828125 35 L 564.3798828125 35 L 564.3798828125 20 Z Z" stroke-miterlimit="10"/></g><g transform="translate(-10,-10) scale(1,1)"><rect fill="#ffffff" stroke="none" x="564.3798828125" y="34" width="49" height="25"/></g><g transform="translate(-10,-10) scale(1,1)"><path fill="none" stroke="#000000" d="M 564.3798828125 34 L 613.3798828125 34 L 613.3798828125 59 L 564.3798828125 59 L 564.3798828125 34 Z Z" stroke-miterlimit="10"/></g><g transform="translate(-10,-10) scale(1,1)"><g><path fill="none" stroke="none"/><text fill="#000000" stroke="none" font-family="Arial" font-size="13px" font-style="normal" font-weight="bold" text-decoration="none" x="576.96533203125" y="54.5">mvc</text></g></g><g transform="translate(-10,-10) scale(1,1)"><rect fill="#C0C0C0" stroke="none" x="651.3798828125" y="27" width="24.699609375000023" height="15" opacity="0.2"/></g><g transform="translate(-10,-10) scale(1,1)"><rect fill="#C0C0C0" stroke="none" x="651.3798828125" y="41" width="61.7490234375" height="25" opacity="0.2"/></g><g transform="translate(-10,-10) scale(1,1)"><rect fill="#ffffff" stroke="none" x="644.3798828125" y="35" width="61.7490234375" height="24"/></g><g transform="translate(-10,-10) scale(1,1)"><path fill="none" stroke="#000000" d="M 644.3798828125 35 L 706.12890625 35 L 706.12890625 59 L 644.3798828125 59 L 644.3798828125 35 Z Z" stroke-miterlimit="10"/></g><g transform="translate(-10,-10) scale(1,1)"><rect fill="#ffffff" stroke="none" x="644.3798828125" y="20" width="24.699609375000023" height="15"/></g><g transform="translate(-10,-10) scale(1,1)"><path fill="none" stroke="#000000" d="M 644.3798828125 20 L 669.0794921875 20 L 669.0794921875 35 L 644.3798828125 35 L 644.3798828125 20 Z Z" stroke-miterlimit="10"/></g><g transform="translate(-10,-10) scale(1,1)"><rect fill="#ffffff" stroke="none" x="644.3798828125" y="34" width="61.7490234375" height="25"/></g><g transform="translate(-10,-10) scale(1,1)"><path fill="none" stroke="#000000" d="M 644.3798828125 34 L 706.12890625 34 L 706.12890625 59 L 644.3798828125 59 L 644.3798828125 34 Z Z" stroke-miterlimit="10"/></g><g transform="translate(-10,-10) scale(1,1)"><g><path fill="none" stroke="none"/><text fill="#000000" stroke="none" font-family="Arial" font-size="13px" font-style="normal" font-weight="bold" text-decoration="none" x="650.685791015625" y="54.5">renderer</text></g></g><g transform="translate(-10,-10) scale(1,1)"><rect fill="#C0C0C0" stroke="none" x="744.12890625" y="27" width="19.600000000000023" height="15" opacity="0.2"/></g><g transform="translate(-10,-10) scale(1,1)"><rect fill="#C0C0C0" stroke="none" x="744.12890625" y="41" width="49" height="25" opacity="0.2"/></g><g transform="translate(-10,-10) scale(1,1)"><rect fill="#ffffff" stroke="none" x="737.12890625" y="35" width="49" height="24"/></g><g transform="translate(-10,-10) scale(1,1)"><path fill="none" stroke="#000000" d="M 737.12890625 35 L 786.12890625 35 L 786.12890625 59 L 737.12890625 59 L 737.12890625 35 Z Z" stroke-miterlimit="10"/></g><g transform="translate(-10,-10) scale(1,1)"><rect fill="#ffffff" stroke="none" x="737.12890625" y="20" width="19.600000000000023" height="15"/></g><g transform="translate(-10,-10) scale(1,1)"><path fill="none" stroke="#000000" d="M 737.12890625 20 L 756.72890625 20 L 756.72890625 35 L 737.12890625 35 L 737.12890625 20 Z Z" stroke-miterlimit="10"/></g><g transform="translate(-10,-10) scale(1,1)"><rect fill="#ffffff" stroke="none" x="737.12890625" y="34" width="49" height="25"/></g><g transform="translate(-10,-10) scale(1,1)"><path fill="none" stroke="#000000" d="M 737.12890625 34 L 786.12890625 34 L 786.12890625 59 L 737.12890625 59 L 737.12890625 34 Z Z" stroke-miterlimit="10"/></g><g transform="translate(-10,-10) scale(1,1)"><g><path fill="none" stroke="none"/><text fill="#000000" stroke="none" font-family="Arial" font-size="13px" font-style="normal" font-weight="bold" text-decoration="none" x="756.56982421875" y="54.5">ui</text></g></g><g transform="translate(-10,-10) scale(1,1)"><rect fill="#C0C0C0" stroke="none" x="824.12890625" y="27" width="19.600000000000023" height="15" opacity="0.2"/></g><g transform="translate(-10,-10) scale(1,1)"><rect fill="#C0C0C0" stroke="none" x="824.12890625" y="41" width="49" height="25" opacity="0.2"/></g><g transform="translate(-10,-10) scale(1,1)"><rect fill="#ffffff" stroke="none" x="817.12890625" y="35" width="49" height="24"/></g><g transform="translate(-10,-10) scale(1,1)"><path fill="none" stroke="#000000" d="M 817.12890625 35 L 866.12890625 35 L 866.12890625 59 L 817.12890625 59 L 817.12890625 35 Z Z" stroke-miterlimit="10"/></g><g transform="translate(-10,-10) scale(1,1)"><rect fill="#ffffff" stroke="none" x="817.12890625" y="20" width="19.600000000000023" height="15"/></g><g transform="translate(-10,-10) scale(1,1)"><path fill="none" stroke="#000000" d="M 817.12890625 20 L 836.72890625 20 L 836.72890625 35 L 817.12890625 35 L 817.12890625 20 Z Z" stroke-miterlimit="10"/></g><g transform="translate(-10,-10) scale(1,1)"><rect fill="#ffffff" stroke="none" x="817.12890625" y="34" width="49" height="25"/></g><g transform="translate(-10,-10) scale(1,1)"><path fill="none" stroke="#000000" d="M 817.12890625 34 L 866.12890625 34 L 866.12890625 59 L 817.12890625 59 L 817.12890625 34 Z Z" stroke-miterlimit="10"/></g><g transform="translate(-10,-10) scale(1,1)"><g><path fill="none" stroke="none"/><text fill="#000000" stroke="none" font-family="Arial" font-size="13px" font-style="normal" font-weight="bold" text-decoration="none" x="833.31982421875" y="54.5">util</text></g></g></g></svg>