<svg version="1.1" xmlns="http://www.w3.org/2000/svg" xmlns:xlink="http://www.w3.org/1999/xlink" width="593.281982421875" height="123"><defs/><g><g transform="translate(-10,-10) scale(1,1)"><rect fill="#C0C0C0" stroke="none" x="125.534912109375" y="106" width="153.4599609375" height="24" opacity="0.2"/></g><g transform="translate(-10,-10) scale(1,1)"><rect fill="#ffffff" stroke="none" x="118.534912109375" y="99" width="153.4599609375" height="24"/></g><g transform="translate(-10,-10) scale(1,1)"><path fill="none" stroke="#000000" d="M 118.534912109375 99 L 271.994873046875 99 L 271.994873046875 123 L 118.534912109375 123 L 118.534912109375 99 Z Z" stroke-miterlimit="10"/></g><g transform="translate(-10,-10) scale(1,1)"><g><path fill="none" stroke="none"/><text fill="#000000" stroke="none" font-family="Arial" font-size="13px" font-style="normal" font-weight="bold" text-decoration="none" x="129.5126953125" y="118.5">CompatibilityException</text></g></g><g transform="translate(-10,-10) scale(1,1)"><rect fill="#C0C0C0" stroke="none" x="27" y="39" width="110.84814453125" height="24" opacity="0.2"/></g><g transform="translate(-10,-10) scale(1,1)"><rect fill="#ffffff" stroke="none" x="20" y="32" width="110.84814453125" height="24"/></g><g transform="translate(-10,-10) scale(1,1)"><path fill="none" stroke="#000000" d="M 20 32 L 130.84814453125 32 L 130.84814453125 56 L 20 56 L 20 32 Z Z" stroke-miterlimit="10"/></g><g transform="translate(-10,-10) scale(1,1)"><g><path fill="none" stroke="none"/><text fill="#000000" stroke="none" font-family="Arial" font-size="13px" font-style="normal" font-weight="bold" text-decoration="none" x="28.451416015625" y="51.5">ExceptionDialog</text></g></g><g transform="translate(-10,-10) scale(1,1)"><path fill="#C0C0C0" stroke="none" d="M 218.1962890625 38.5 C 218.1962890625 32.1487248 223.3450138625 27 229.6962890625 27 C 236.0475642625 27 241.1962890625 32.1487248 241.1962890625 38.5 C 241.1962890625 44.8512752 236.0475642625 50 229.6962890625 50 C 223.3450138625 50 218.1962890625 44.8512752 218.1962890625 38.5 Z" opacity="0.2"/></g><g transform="translate(-10,-10) scale(1,1)"><path fill="#ffffff" stroke="none" d="M 211.1962890625 31.5 C 211.1962890625 25.1487248 216.3450138625 20 222.6962890625 20 C 229.0475642625 20 234.1962890625 25.1487248 234.1962890625 31.5 C 234.1962890625 37.8512752 229.0475642625 43 222.6962890625 43 C 216.3450138625 43 211.1962890625 37.8512752 211.1962890625 31.5 Z"/></g><g transform="translate(-10,-10) scale(1,1)"><path fill="none" stroke="#000000" d="M 211.1962890625 31.5 C 211.1962890625 25.1487248 216.3450138625 20 222.6962890625 20 C 229.0475642625 20 234.1962890625 25.1487248 234.1962890625 31.5 C 234.1962890625 37.8512752 229.0475642625 43 222.6962890625 43 C 216.3450138625 43 211.1962890625 37.8512752 211.1962890625 31.5 Z" stroke-miterlimit="10"/></g><g transform="translate(-10,-10) scale(1,1)"><g><path fill="none" stroke="none"/><text fill="#000000" stroke="none" font-family="Arial" font-size="13px" font-style="normal" font-weight="bold" text-decoration="none" x="171.0263671875" y="62.5">ExceptionListener</text></g></g><g transform="translate(-10,-10) scale(1,1)"><rect fill="#C0C0C0" stroke="none" x="309.994873046875" y="106" width="157.82080078125" height="24" opacity="0.2"/></g><g transform="translate(-10,-10) scale(1,1)"><rect fill="#ffffff" stroke="none" x="302.994873046875" y="99" width="157.82080078125" height="24"/></g><g transform="translate(-10,-10) scale(1,1)"><path fill="none" stroke="#000000" d="M 302.994873046875 99 L 460.815673828125 99 L 460.815673828125 123 L 302.994873046875 123 L 302.994873046875 99 Z Z" stroke-miterlimit="10"/></g><g transform="translate(-10,-10) scale(1,1)"><g><path fill="none" stroke="none"/><text fill="#000000" stroke="none" font-family="Arial" font-size="13px" font-style="normal" font-weight="bold" text-decoration="none" x="313.97900390625" y="118.5">InconsistencyException</text></g></g><g transform="translate(-10,-10) scale(1,1)"><rect fill="#C0C0C0" stroke="none" x="321.54443359375" y="39" width="134.7216796875" height="24" opacity="0.2"/></g><g transform="translate(-10,-10) scale(1,1)"><rect fill="#ffffff" stroke="none" x="314.54443359375" y="32" width="134.7216796875" height="24"/></g><g transform="translate(-10,-10) scale(1,1)"><path fill="none" stroke="#000000" d="M 314.54443359375 32 L 449.26611328125 32 L 449.26611328125 56 L 314.54443359375 56 L 314.54443359375 32 Z Z" stroke-miterlimit="10"/></g><g transform="translate(-10,-10) scale(1,1)"><g><path fill="none" stroke="none"/><text fill="#000000" stroke="none" font-family="Arial" font-size="13px" font-style="normal" font-weight="bold" text-decoration="none" x="323.014892578125" y="51.5">ParameterException</text></g></g><g transform="translate(-10,-10) scale(1,1)"><path fill="none" stroke="#000000" d="M 195 98 Q 196 84 321 57" stroke-miterlimit="10"/></g><g transform="translate(-10,-10) scale(1,1)"><path fill="#FFFFFF" stroke="none" d="M 302.9103468116543 69.52056099084118 L 321 57 L 299.35530998032436 53.06205714209145"/></g><g transform="translate(-10,-10) scale(1,1)"><path fill="none" stroke="#000000" d="M 302.9103468116543 69.52056099084118 L 321 57 L 299.35530998032436 53.06205714209145 L 302.9103468116543 69.52056099084118" stroke-miterlimit="10"/></g><g transform="translate(-10,-10) scale(1,1)"><path fill="none" stroke="#000000" d="M 381 98 Q 382 84 381 57" stroke-miterlimit="10"/></g><g transform="translate(-10,-10) scale(1,1)"><path fill="#FFFFFF" stroke="none" d="M 390.1655420165881 76.99982098775281 L 381 57 L 373.33900787022264 77.62302595613673"/></g><g transform="translate(-10,-10) scale(1,1)"><path fill="none" stroke="#000000" d="M 390.1655420165881 76.99982098775281 L 381 57 L 373.33900787022264 77.62302595613673 L 390.1655420165881 76.99982098775281" stroke-miterlimit="10"/></g><g transform="translate(-10,-10) scale(1,1)"><rect fill="#C0C0C0" stroke="none" x="498.815673828125" y="106" width="101.46630859375" height="24" opacity="0.2"/></g><g transform="translate(-10,-10) scale(1,1)"><rect fill="#ffffff" stroke="none" x="491.815673828125" y="99" width="101.46630859375" height="24"/></g><g transform="translate(-10,-10) scale(1,1)"><path fill="none" stroke="#000000" d="M 491.815673828125 99 L 593.281982421875 99 L 593.281982421875 123 L 491.815673828125 123 L 491.815673828125 99 Z Z" stroke-miterlimit="10"/></g><g transform="translate(-10,-10) scale(1,1)"><g><path fill="none" stroke="none"/><text fill="#000000" stroke="none" font-family="Arial" font-size="13px" font-style="normal" font-weight="bold" text-decoration="none" x="499.552978515625" y="118.5">TypeException</text></g></g><g transform="translate(-10,-10) scale(1,1)"><path fill="none" stroke="#000000" d="M 542 98 Q 543 84 434 57" stroke-miterlimit="10"/></g><g transform="translate(-10,-10) scale(1,1)"><path fill="#FFFFFF" stroke="none" d="M 455.7533572782593 53.71496619128427 L 434 57 L 451.7048161276008 70.05907676246089"/></g><g transform="translate(-10,-10) scale(1,1)"><path fill="none" stroke="#000000" d="M 455.7533572782593 53.71496619128427 L 434 57 L 451.7048161276008 70.05907676246089 L 455.7533572782593 53.71496619128427" stroke-miterlimit="10"/></g><g transform="translate(-10,-10) scale(1,1)"><rect fill="#C0C0C0" stroke="none" x="487.26611328125" y="39" width="58.8544921875" height="24" opacity="0.2"/></g><g transform="translate(-10,-10) scale(1,1)"><rect fill="#ffffff" stroke="none" x="480.26611328125" y="32" width="58.8544921875" height="24"/></g><g transform="translate(-10,-10) scale(1,1)"><path fill="none" stroke="#000000" d="M 480.26611328125 32 L 539.12060546875 32 L 539.12060546875 56 L 480.26611328125 56 L 480.26611328125 32 Z Z" stroke-miterlimit="10"/></g><g transform="translate(-10,-10) scale(1,1)"><g><path fill="none" stroke="none"/><text fill="#000000" stroke="none" font-family="Arial" font-size="13px" font-style="normal" font-weight="bold" text-decoration="none" x="486.203857421875" y="51.5">Validate</text></g></g></g></svg>