<svg version="1.1" xmlns="http://www.w3.org/2000/svg" xmlns:xlink="http://www.w3.org/1999/xlink" width="1120.9993896484375" height="214"><defs/><g><g transform="translate(-10,-10) scale(1,1)"><rect fill="#C0C0C0" stroke="none" x="433.3331298828125" y="124" width="151.0908203125" height="24" opacity="0.2"/></g><g transform="translate(-10,-10) scale(1,1)"><rect fill="#C0C0C0" stroke="none" x="526.6285400390625" y="106" width="66.79541015625" height="22" opacity="0.2"/></g><g transform="translate(-10,-10) scale(1,1)"><rect fill="#ffffff" stroke="none" x="426.3331298828125" y="117" width="151.0908203125" height="24"/></g><g transform="translate(-10,-10) scale(1,1)"><path fill="none" stroke="#000000" d="M 426.3331298828125 117 L 577.4239501953125 117 L 577.4239501953125 141 L 426.3331298828125 141 L 426.3331298828125 117 Z Z" stroke-miterlimit="10"/></g><g transform="translate(-10,-10) scale(1,1)"><g><path fill="none" stroke="none"/><text fill="#000000" stroke="none" font-family="Arial" font-size="13px" font-style="italic" font-weight="bold" text-decoration="none" x="446.6063232421875" y="136.5">AbstractIntervalList</text></g></g><g transform="translate(-10,-10) scale(1,1)"><rect fill="#ffffff" stroke="none" x="519.6285400390625" y="99" width="66.79541015625" height="22"/></g><g transform="translate(-10,-10) scale(1,1)"><path fill="none" stroke="#000000" d="M 519.6285400390625 99 L 586.4239501953125 99 L 586.4239501953125 121 L 519.6285400390625 121 L 519.6285400390625 99 Z Z" stroke-miterlimit="10" stroke-dasharray="3"/></g><g transform="translate(-10,-10) scale(1,1)"><g><path fill="none" stroke="none"/><text fill="#000000" stroke="none" font-family="Arial" font-size="13px" font-style="normal" font-weight="normal" text-decoration="none" x="524.6285400390625" y="116.5">T: Interval</text></g></g><g transform="translate(-10,-10) scale(1,1)"><rect fill="#C0C0C0" stroke="none" x="27" y="48" width="176.392578125" height="24" opacity="0.2"/></g><g transform="translate(-10,-10) scale(1,1)"><rect fill="#C0C0C0" stroke="none" x="145.59716796875" y="30" width="66.79541015625" height="22" opacity="0.2"/></g><g transform="translate(-10,-10) scale(1,1)"><rect fill="#ffffff" stroke="none" x="20" y="41" width="176.392578125" height="24"/></g><g transform="translate(-10,-10) scale(1,1)"><path fill="none" stroke="#000000" d="M 20 41 L 196.392578125 41 L 196.392578125 65 L 20 65 L 20 41 Z Z" stroke-miterlimit="10"/></g><g transform="translate(-10,-10) scale(1,1)"><g><path fill="none" stroke="none"/><text fill="#000000" stroke="none" font-family="Arial" font-size="13px" font-style="italic" font-weight="bold" text-decoration="none" x="40.279541015625" y="60.5">AbstractIntervalOverlap</text></g></g><g transform="translate(-10,-10) scale(1,1)"><rect fill="#ffffff" stroke="none" x="138.59716796875" y="23" width="66.79541015625" height="22"/></g><g transform="translate(-10,-10) scale(1,1)"><path fill="none" stroke="#000000" d="M 138.59716796875 23 L 205.392578125 23 L 205.392578125 45 L 138.59716796875 45 L 138.59716796875 23 Z Z" stroke-miterlimit="10" stroke-dasharray="3"/></g><g transform="translate(-10,-10) scale(1,1)"><g><path fill="none" stroke="none"/><text fill="#000000" stroke="none" font-family="Arial" font-size="13px" font-style="normal" font-weight="normal" text-decoration="none" x="143.59716796875" y="40.5">T: Interval</text></g></g><g transform="translate(-10,-10) scale(1,1)"><rect fill="#C0C0C0" stroke="none" x="501.2572021484375" y="39" width="55.24267578125" height="24" opacity="0.2"/></g><g transform="translate(-10,-10) scale(1,1)"><rect fill="#ffffff" stroke="none" x="494.2572021484375" y="32" width="55.24267578125" height="24"/></g><g transform="translate(-10,-10) scale(1,1)"><path fill="none" stroke="#000000" d="M 494.2572021484375 32 L 549.4998779296875 32 L 549.4998779296875 56 L 494.2572021484375 56 L 494.2572021484375 32 Z Z" stroke-miterlimit="10"/></g><g transform="translate(-10,-10) scale(1,1)"><g><path fill="none" stroke="none"/><text fill="#000000" stroke="none" font-family="Arial" font-size="13px" font-style="normal" font-weight="bold" text-decoration="none" x="500.5631103515625" y="51.5">Interval</text></g></g><g transform="translate(-10,-10) scale(1,1)"><path fill="none" stroke="#000000" d="M 497 98 Q 492 84 512 57" stroke-miterlimit="10"/></g><g transform="translate(-10,-10) scale(1,1)"><path fill="none" stroke="#000000" d="M 509.3334842100497 67.67191142869663 L 512 57 L 502.56830766333155 62.660669542238736" stroke-miterlimit="10"/></g><g transform="translate(-10,-10) scale(1,1)"><g><path fill="none" stroke="none"/><text fill="#000000" stroke="none" font-family="Arial" font-size="13px" font-style="normal" font-weight="normal" text-decoration="none" x="448" y="75">#minBorders</text></g></g><g transform="translate(-10,-10) scale(1,1)"><path fill="none" stroke="#000000" d="M 516 98 Q 522 84 521 57" stroke-miterlimit="10"/></g><g transform="translate(-10,-10) scale(1,1)"><path fill="none" stroke="#000000" d="M 525.582771008294 66.99991049387641 L 521 57 L 517.1695039351113 67.31151297806836" stroke-miterlimit="10"/></g><g transform="translate(-10,-10) scale(1,1)"><g><path fill="none" stroke="none"/><text fill="#000000" stroke="none" font-family="Arial" font-size="13px" font-style="normal" font-weight="normal" text-decoration="none" x="468" y="90">#maxBorders</text></g></g><g transform="translate(-10,-10) scale(1,1)"><rect fill="#C0C0C0" stroke="none" x="400.420654296875" y="188" width="78.3544921875" height="24" opacity="0.2"/></g><g transform="translate(-10,-10) scale(1,1)"><rect fill="#ffffff" stroke="none" x="393.420654296875" y="181" width="78.3544921875" height="24"/></g><g transform="translate(-10,-10) scale(1,1)"><path fill="none" stroke="#000000" d="M 393.420654296875 181 L 471.775146484375 181 L 471.775146484375 205 L 393.420654296875 205 L 393.420654296875 181 Z Z" stroke-miterlimit="10"/></g><g transform="translate(-10,-10) scale(1,1)"><g><path fill="none" stroke="none"/><text fill="#000000" stroke="none" font-family="Arial" font-size="13px" font-style="normal" font-weight="bold" text-decoration="none" x="401.16748046875" y="200.5">IntervalList</text></g></g><g transform="translate(-10,-10) scale(1,1)"><path fill="none" stroke="#000000" d="M 432 180 Q 433 157 463 142" stroke-miterlimit="10"/></g><g transform="translate(-10,-10) scale(1,1)"><path fill="#FFFFFF" stroke="none" d="M 448.58556169007716 158.61998700990554 L 463 142 L 441.0553474061219 143.55955844199494"/></g><g transform="translate(-10,-10) scale(1,1)"><path fill="none" stroke="#000000" d="M 448.58556169007716 158.61998700990554 L 463 142 L 441.0553474061219 143.55955844199494 L 448.58556169007716 158.61998700990554" stroke-miterlimit="10"/></g><g transform="translate(-10,-10) scale(1,1)"><rect fill="#C0C0C0" stroke="none" x="43.0015869140625" y="115" width="103.65625" height="24" opacity="0.2"/></g><g transform="translate(-10,-10) scale(1,1)"><rect fill="#ffffff" stroke="none" x="36.0015869140625" y="108" width="103.65625" height="24"/></g><g transform="translate(-10,-10) scale(1,1)"><path fill="none" stroke="#000000" d="M 36.0015869140625 108 L 139.6578369140625 108 L 139.6578369140625 132 L 36.0015869140625 132 L 36.0015869140625 108 Z Z" stroke-miterlimit="10"/></g><g transform="translate(-10,-10) scale(1,1)"><g><path fill="none" stroke="none"/><text fill="#000000" stroke="none" font-family="Arial" font-size="13px" font-style="normal" font-weight="bold" text-decoration="none" x="43.7547607421875" y="127.5">IntervalOverlap</text></g></g><g transform="translate(-10,-10) scale(1,1)"><path fill="none" stroke="#000000" d="M 87 107 Q 88 84 99 66" stroke-miterlimit="10"/></g><g transform="translate(-10,-10) scale(1,1)"><path fill="#FFFFFF" stroke="none" d="M 95.58515625811603 87.73335782198683 L 99 66 L 81.21753613954083 78.95314552730198"/></g><g transform="translate(-10,-10) scale(1,1)"><path fill="none" stroke="#000000" d="M 95.58515625811603 87.73335782198683 L 99 66 L 81.21753613954083 78.95314552730198 L 95.58515625811603 87.73335782198683" stroke-miterlimit="10"/></g><g transform="translate(-10,-10) scale(1,1)"><rect fill="#C0C0C0" stroke="none" x="177.6578369140625" y="124" width="214.67529296875" height="24" opacity="0.2"/></g><g transform="translate(-10,-10) scale(1,1)"><rect fill="#C0C0C0" stroke="none" x="339.5968017578125" y="106" width="61.736328125" height="22" opacity="0.2"/></g><g transform="translate(-10,-10) scale(1,1)"><rect fill="#ffffff" stroke="none" x="170.6578369140625" y="117" width="214.67529296875" height="24"/></g><g transform="translate(-10,-10) scale(1,1)"><path fill="none" stroke="#000000" d="M 170.6578369140625 117 L 385.3331298828125 117 L 385.3331298828125 141 L 170.6578369140625 141 L 170.6578369140625 117 Z Z" stroke-miterlimit="10"/></g><g transform="translate(-10,-10) scale(1,1)"><g><path fill="none" stroke="none"/><text fill="#000000" stroke="none" font-family="Arial" font-size="13px" font-style="normal" font-weight="bold" text-decoration="none" x="190.9310302734375" y="136.5">IntervalOverlapWithReference</text></g></g><g transform="translate(-10,-10) scale(1,1)"><rect fill="#ffffff" stroke="none" x="332.5968017578125" y="99" width="61.736328125" height="22"/></g><g transform="translate(-10,-10) scale(1,1)"><path fill="none" stroke="#000000" d="M 332.5968017578125 99 L 394.3331298828125 99 L 394.3331298828125 121 L 332.5968017578125 121 L 332.5968017578125 99 Z Z" stroke-miterlimit="10" stroke-dasharray="3"/></g><g transform="translate(-10,-10) scale(1,1)"><g><path fill="none" stroke="none"/><text fill="#000000" stroke="none" font-family="Arial" font-size="13px" font-style="normal" font-weight="normal" text-decoration="none" x="337.5968017578125" y="116.5">T: Object</text></g></g><g transform="translate(-10,-10) scale(1,1)"><path fill="none" stroke="#000000" d="M 283 98 Q 283 84 207 66" stroke-miterlimit="10"/></g><g transform="translate(-10,-10) scale(1,1)"><path fill="#FFFFFF" stroke="none" d="M 228.71850181445748 62.491912353516994 L 207 66 L 224.83789247404013 78.87670734639033"/></g><g transform="translate(-10,-10) scale(1,1)"><path fill="none" stroke="#000000" d="M 228.71850181445748 62.491912353516994 L 207 66 L 224.83789247404013 78.87670734639033 L 228.71850181445748 62.491912353516994" stroke-miterlimit="10"/></g><g transform="translate(-10,-10) scale(1,1)"><rect fill="#C0C0C0" stroke="none" x="625.4239501953125" y="115" width="146.26171875" height="24" opacity="0.2"/></g><g transform="translate(-10,-10) scale(1,1)"><rect fill="#ffffff" stroke="none" x="618.4239501953125" y="108" width="146.26171875" height="24"/></g><g transform="translate(-10,-10) scale(1,1)"><path fill="none" stroke="#000000" d="M 618.4239501953125 108 L 764.6856689453125 108 L 764.6856689453125 132 L 618.4239501953125 132 L 618.4239501953125 108 Z Z" stroke-miterlimit="10"/></g><g transform="translate(-10,-10) scale(1,1)"><g><path fill="none" stroke="none"/><text fill="#000000" stroke="none" font-family="Arial" font-size="13px" font-style="normal" font-weight="bold" text-decoration="none" x="627.2498779296875" y="127.5">IntervalWithReference</text></g></g><g transform="translate(-10,-10) scale(1,1)"><path fill="none" stroke="#000000" d="M 691 107 Q 692 84 550 51" stroke-miterlimit="10"/></g><g transform="translate(-10,-10) scale(1,1)"><path fill="#FFFFFF" stroke="none" d="M 571.7035198987902 47.40038557581267 L 550 51 L 567.8920178650515 63.80139432705195"/></g><g transform="translate(-10,-10) scale(1,1)"><path fill="none" stroke="#000000" d="M 571.7035198987902 47.40038557581267 L 550 51 L 567.8920178650515 63.80139432705195 L 571.7035198987902 47.40038557581267" stroke-miterlimit="10"/></g><g transform="translate(-10,-10) scale(1,1)"><rect fill="#C0C0C0" stroke="none" x="607.6217041015625" y="48" width="112.814453125" height="24" opacity="0.2"/></g><g transform="translate(-10,-10) scale(1,1)"><rect fill="#C0C0C0" stroke="none" x="662.6407470703125" y="30" width="66.79541015625" height="22" opacity="0.2"/></g><g transform="translate(-10,-10) scale(1,1)"><rect fill="#ffffff" stroke="none" x="600.6217041015625" y="41" width="112.814453125" height="24"/></g><g transform="translate(-10,-10) scale(1,1)"><path fill="none" stroke="#000000" d="M 600.6217041015625 41 L 713.4361572265625 41 L 713.4361572265625 65 L 600.6217041015625 65 L 600.6217041015625 41 Z Z" stroke-miterlimit="10"/></g><g transform="translate(-10,-10) scale(1,1)"><g><path fill="none" stroke="none"/><text fill="#000000" stroke="none" font-family="Arial" font-size="13px" font-style="normal" font-weight="bold" text-decoration="none" x="617.6480712890625" y="60.5">OverlapEvent</text></g></g><g transform="translate(-10,-10) scale(1,1)"><rect fill="#ffffff" stroke="none" x="655.6407470703125" y="23" width="66.79541015625" height="22"/></g><g transform="translate(-10,-10) scale(1,1)"><path fill="none" stroke="#000000" d="M 655.6407470703125 23 L 722.4361572265625 23 L 722.4361572265625 45 L 655.6407470703125 45 L 655.6407470703125 23 Z Z" stroke-miterlimit="10" stroke-dasharray="3"/></g><g transform="translate(-10,-10) scale(1,1)"><g><path fill="none" stroke="none"/><text fill="#000000" stroke="none" font-family="Arial" font-size="13px" font-style="normal" font-weight="normal" text-decoration="none" x="660.6407470703125" y="40.5">T: Interval</text></g></g><g transform="translate(-10,-10) scale(1,1)"><rect fill="#C0C0C0" stroke="none" x="509.775146484375" y="197" width="146.76806640625" height="24" opacity="0.2"/></g><g transform="translate(-10,-10) scale(1,1)"><rect fill="#C0C0C0" stroke="none" x="598.747802734375" y="179" width="66.79541015625" height="22" opacity="0.2"/></g><g transform="translate(-10,-10) scale(1,1)"><rect fill="#ffffff" stroke="none" x="502.775146484375" y="190" width="146.76806640625" height="24"/></g><g transform="translate(-10,-10) scale(1,1)"><path fill="none" stroke="#000000" d="M 502.775146484375 190 L 649.543212890625 190 L 649.543212890625 214 L 502.775146484375 214 L 502.775146484375 190 Z Z" stroke-miterlimit="10"/></g><g transform="translate(-10,-10) scale(1,1)"><g><path fill="none" stroke="none"/><text fill="#000000" stroke="none" font-family="Arial" font-size="13px" font-style="normal" font-weight="bold" text-decoration="none" x="521.96923828125" y="209.5">OverlapIntervalList</text></g></g><g transform="translate(-10,-10) scale(1,1)"><rect fill="#ffffff" stroke="none" x="591.747802734375" y="172" width="66.79541015625" height="22"/></g><g transform="translate(-10,-10) scale(1,1)"><path fill="none" stroke="#000000" d="M 591.747802734375 172 L 658.543212890625 172 L 658.543212890625 194 L 591.747802734375 194 L 591.747802734375 172 Z Z" stroke-miterlimit="10" stroke-dasharray="3"/></g><g transform="translate(-10,-10) scale(1,1)"><g><path fill="none" stroke="none"/><text fill="#000000" stroke="none" font-family="Arial" font-size="13px" font-style="normal" font-weight="normal" text-decoration="none" x="596.747802734375" y="189.5">T: Interval</text></g></g><g transform="translate(-10,-10) scale(1,1)"><path fill="none" stroke="#000000" d="M 582 171 Q 582 157 551 142" stroke-miterlimit="10"/></g><g transform="translate(-10,-10) scale(1,1)"><path fill="#FFFFFF" stroke="none" d="M 572.9630545058 143.2744554818663 L 551 142 L 565.6290486630729 158.43140089016896"/></g><g transform="translate(-10,-10) scale(1,1)"><path fill="none" stroke="#000000" d="M 572.9630545058 143.2744554818663 L 551 142 L 565.6290486630729 158.43140089016896 L 572.9630545058 143.2744554818663" stroke-miterlimit="10"/></g><g transform="translate(-10,-10) scale(1,1)"><path fill="#C0C0C0" stroke="none" d="M 809.0506591796875 38.5 C 809.0506591796875 32.1487248 814.1993839796875 27 820.5506591796875 27 C 826.9019343796875 27 832.0506591796875 32.1487248 832.0506591796875 38.5 C 832.0506591796875 44.8512752 826.9019343796875 50 820.5506591796875 50 C 814.1993839796875 50 809.0506591796875 44.8512752 809.0506591796875 38.5 Z" opacity="0.2"/></g><g transform="translate(-10,-10) scale(1,1)"><path fill="#ffffff" stroke="none" d="M 802.0506591796875 31.5 C 802.0506591796875 25.1487248 807.1993839796875 20 813.5506591796875 20 C 819.9019343796875 20 825.0506591796875 25.1487248 825.0506591796875 31.5 C 825.0506591796875 37.8512752 819.9019343796875 43 813.5506591796875 43 C 807.1993839796875 43 802.0506591796875 37.8512752 802.0506591796875 31.5 Z"/></g><g transform="translate(-10,-10) scale(1,1)"><path fill="none" stroke="#000000" d="M 802.0506591796875 31.5 C 802.0506591796875 25.1487248 807.1993839796875 20 813.5506591796875 20 C 819.9019343796875 20 825.0506591796875 25.1487248 825.0506591796875 31.5 C 825.0506591796875 37.8512752 819.9019343796875 43 813.5506591796875 43 C 807.1993839796875 43 802.0506591796875 37.8512752 802.0506591796875 31.5 Z" stroke-miterlimit="10"/></g><g transform="translate(-10,-10) scale(1,1)"><g><path fill="none" stroke="none"/><text fill="#000000" stroke="none" font-family="Arial" font-size="13px" font-style="normal" font-weight="bold" text-decoration="none" x="767.6666259765625" y="62.5">OverlapListener</text></g></g><g transform="translate(-10,-10) scale(1,1)"><rect fill="#C0C0C0" stroke="none" x="802.6856689453125" y="115" width="35.72998046875" height="24" opacity="0.2"/></g><g transform="translate(-10,-10) scale(1,1)"><rect fill="#ffffff" stroke="none" x="795.6856689453125" y="108" width="35.72998046875" height="24"/></g><g transform="translate(-10,-10) scale(1,1)"><path fill="none" stroke="#000000" d="M 795.6856689453125 108 L 831.4156494140625 108 L 831.4156494140625 132 L 795.6856689453125 132 L 795.6856689453125 108 Z Z" stroke-miterlimit="10"/></g><g transform="translate(-10,-10) scale(1,1)"><g><path fill="none" stroke="none"/><text fill="#000000" stroke="none" font-family="Arial" font-size="13px" font-style="normal" font-weight="bold" text-decoration="none" x="800.9093017578125" y="127.5">Test</text></g></g><g transform="translate(-10,-10) scale(1,1)"><path fill="none" stroke="#000000" d="M 813 107 Q 814 84 813.3157894736842 43" stroke-miterlimit="10"/></g><g transform="translate(-10,-10) scale(1,1)"><rect fill="#C0C0C0" stroke="none" x="905.5433349609375" y="32.5" width="95.72802734375" height="37" opacity="0.2"/></g><g transform="translate(-10,-10) scale(1,1)"><rect fill="#ffffff" stroke="none" x="898.5433349609375" y="25.5" width="95.72802734375" height="37"/></g><g transform="translate(-10,-10) scale(1,1)"><path fill="none" stroke="#000000" d="M 898.5433349609375 25.5 L 994.2713623046875 25.5 L 994.2713623046875 62.5 L 898.5433349609375 62.5 L 898.5433349609375 25.5 Z Z" stroke-miterlimit="10"/></g><g transform="translate(-10,-10) scale(1,1)"><g><path fill="none" stroke="none"/><text fill="#000000" stroke="none" font-family="Arial" font-size="13px" font-style="normal" font-weight="normal" text-decoration="none" x="903.0433349609375" y="43">«enumeration»</text></g></g><g transform="translate(-10,-10) scale(1,1)"><g><path fill="none" stroke="none"/><text fill="#000000" stroke="none" font-family="Arial" font-size="13px" font-style="normal" font-weight="bold" text-decoration="none" x="915.7037353515625" y="58">TimeScale</text></g></g><g transform="translate(-10,-10) scale(1,1)"><rect fill="#C0C0C0" stroke="none" x="916.3946533203125" y="115" width="74.025390625" height="24" opacity="0.2"/></g><g transform="translate(-10,-10) scale(1,1)"><rect fill="#ffffff" stroke="none" x="909.3946533203125" y="108" width="74.025390625" height="24"/></g><g transform="translate(-10,-10) scale(1,1)"><path fill="none" stroke="#000000" d="M 909.3946533203125 108 L 983.4200439453125 108 L 983.4200439453125 132 L 909.3946533203125 132 L 909.3946533203125 108 Z Z" stroke-miterlimit="10"/></g><g transform="translate(-10,-10) scale(1,1)"><g><path fill="none" stroke="none"/><text fill="#000000" stroke="none" font-family="Arial" font-size="13px" font-style="normal" font-weight="bold" text-decoration="none" x="915.3387451171875" y="127.5">TimeValue</text></g></g><g transform="translate(-10,-10) scale(1,1)"><path fill="none" stroke="#000000" d="M 946 107 Q 947 84 946 64" stroke-miterlimit="10"/></g><g transform="translate(-10,-10) scale(1,1)"><path fill="none" stroke="#000000" d="M 950.7117654685342 73.93978199808875 L 946 64 L 942.3032340597965 74.36020856852564" stroke-miterlimit="10"/></g><g transform="translate(-10,-10) scale(1,1)"><g><path fill="none" stroke="none"/><text fill="#000000" stroke="none" font-family="Arial" font-size="13px" font-style="normal" font-weight="normal" text-decoration="none" x="914" y="97">#scale</text></g></g><g transform="translate(-10,-10) scale(1,1)"><rect fill="#C0C0C0" stroke="none" x="1032.2713623046875" y="32.5" width="95.72802734375" height="37" opacity="0.2"/></g><g transform="translate(-10,-10) scale(1,1)"><rect fill="#ffffff" stroke="none" x="1025.2713623046875" y="25.5" width="95.72802734375" height="37"/></g><g transform="translate(-10,-10) scale(1,1)"><path fill="none" stroke="#000000" d="M 1025.2713623046875 25.5 L 1120.9993896484375 25.5 L 1120.9993896484375 62.5 L 1025.2713623046875 62.5 L 1025.2713623046875 25.5 Z Z" stroke-miterlimit="10"/></g><g transform="translate(-10,-10) scale(1,1)"><g><path fill="none" stroke="none"/><text fill="#000000" stroke="none" font-family="Arial" font-size="13px" font-style="normal" font-weight="normal" text-decoration="none" x="1029.7713623046875" y="43">«enumeration»</text></g></g><g transform="translate(-10,-10) scale(1,1)"><g><path fill="none" stroke="none"/><text fill="#000000" stroke="none" font-family="Arial" font-size="13px" font-style="normal" font-weight="bold" text-decoration="none" x="1046.0404052734375" y="58">Weekday</text></g></g></g></svg>