<svg version="1.1" xmlns="http://www.w3.org/2000/svg" xmlns:xlink="http://www.w3.org/1999/xlink" width="728.85888671875" height="196"><defs/><g><g transform="translate(-10,-10) scale(1,1)"><rect fill="#C0C0C0" stroke="none" x="259.943115234375" y="124" width="146.736328125" height="24" opacity="0.2"/></g><g transform="translate(-10,-10) scale(1,1)"><rect fill="#C0C0C0" stroke="none" x="353.943115234375" y="106" width="61.736328125" height="22" opacity="0.2"/></g><g transform="translate(-10,-10) scale(1,1)"><rect fill="#ffffff" stroke="none" x="252.943115234375" y="117" width="146.736328125" height="24"/></g><g transform="translate(-10,-10) scale(1,1)"><path fill="none" stroke="#000000" d="M 252.943115234375 117 L 399.679443359375 117 L 399.679443359375 141 L 252.943115234375 141 L 252.943115234375 117 Z Z" stroke-miterlimit="10"/></g><g transform="translate(-10,-10) scale(1,1)"><g><path fill="none" stroke="none"/><text fill="#000000" stroke="none" font-family="Arial" font-size="13px" font-style="italic" font-weight="bold" text-decoration="none" x="272.844970703125" y="136.5">AbstractConstraint</text></g></g><g transform="translate(-10,-10) scale(1,1)"><rect fill="#ffffff" stroke="none" x="346.943115234375" y="99" width="61.736328125" height="22"/></g><g transform="translate(-10,-10) scale(1,1)"><path fill="none" stroke="#000000" d="M 346.943115234375 99 L 408.679443359375 99 L 408.679443359375 121 L 346.943115234375 121 L 346.943115234375 99 Z Z" stroke-miterlimit="10" stroke-dasharray="3"/></g><g transform="translate(-10,-10) scale(1,1)"><g><path fill="none" stroke="none"/><text fill="#000000" stroke="none" font-family="Arial" font-size="13px" font-style="normal" font-weight="normal" text-decoration="none" x="351.943115234375" y="116.5">T: Object</text></g></g><g transform="translate(-10,-10) scale(1,1)"><rect fill="#C0C0C0" stroke="none" x="27" y="32.5" width="104.341796875" height="37" opacity="0.2"/></g><g transform="translate(-10,-10) scale(1,1)"><rect fill="#ffffff" stroke="none" x="20" y="25.5" width="104.341796875" height="37"/></g><g transform="translate(-10,-10) scale(1,1)"><path fill="none" stroke="#000000" d="M 20 25.5 L 124.341796875 25.5 L 124.341796875 62.5 L 20 62.5 L 20 25.5 Z Z" stroke-miterlimit="10"/></g><g transform="translate(-10,-10) scale(1,1)"><g><path fill="none" stroke="none"/><text fill="#000000" stroke="none" font-family="Arial" font-size="13px" font-style="normal" font-weight="normal" text-decoration="none" x="28.806884765625" y="43">«enumeration»</text></g></g><g transform="translate(-10,-10) scale(1,1)"><g><path fill="none" stroke="none"/><text fill="#000000" stroke="none" font-family="Arial" font-size="13px" font-style="normal" font-weight="bold" text-decoration="none" x="28.095947265625" y="58">ConstraintType</text></g></g><g transform="translate(-10,-10) scale(1,1)"><rect fill="#C0C0C0" stroke="none" x="202.58447265625" y="179" width="123.1181640625" height="24" opacity="0.2"/></g><g transform="translate(-10,-10) scale(1,1)"><rect fill="#ffffff" stroke="none" x="195.58447265625" y="172" width="123.1181640625" height="24"/></g><g transform="translate(-10,-10) scale(1,1)"><path fill="none" stroke="#000000" d="M 195.58447265625 172 L 318.70263671875 172 L 318.70263671875 196 L 195.58447265625 196 L 195.58447265625 172 Z Z" stroke-miterlimit="10"/></g><g transform="translate(-10,-10) scale(1,1)"><g><path fill="none" stroke="none"/><text fill="#000000" stroke="none" font-family="Arial" font-size="13px" font-style="normal" font-weight="bold" text-decoration="none" x="204.40087890625" y="191.5">NumberConstraint</text></g></g><g transform="translate(-10,-10) scale(1,1)"><path fill="none" stroke="#000000" d="M 257 171 Q 258 157 288 142" stroke-miterlimit="10"/></g><g transform="translate(-10,-10) scale(1,1)"><path fill="#FFFFFF" stroke="none" d="M 273.58556169007716 158.61998700990554 L 288 142 L 266.0553474061219 143.55955844199494"/></g><g transform="translate(-10,-10) scale(1,1)"><path fill="none" stroke="#000000" d="M 273.58556169007716 158.61998700990554 L 288 142 L 266.0553474061219 143.55955844199494 L 273.58556169007716 158.61998700990554" stroke-miterlimit="10"/></g><g transform="translate(-10,-10) scale(1,1)"><rect fill="#C0C0C0" stroke="none" x="162.341796875" y="32.5" width="113.01904296875" height="37" opacity="0.2"/></g><g transform="translate(-10,-10) scale(1,1)"><rect fill="#ffffff" stroke="none" x="155.341796875" y="25.5" width="113.01904296875" height="37"/></g><g transform="translate(-10,-10) scale(1,1)"><path fill="none" stroke="#000000" d="M 155.341796875 25.5 L 268.36083984375 25.5 L 268.36083984375 62.5 L 155.341796875 62.5 L 155.341796875 25.5 Z Z" stroke-miterlimit="10"/></g><g transform="translate(-10,-10) scale(1,1)"><g><path fill="none" stroke="none"/><text fill="#000000" stroke="none" font-family="Arial" font-size="13px" font-style="normal" font-weight="normal" text-decoration="none" x="168.4873046875" y="43">«enumeration»</text></g></g><g transform="translate(-10,-10) scale(1,1)"><g><path fill="none" stroke="none"/><text fill="#000000" stroke="none" font-family="Arial" font-size="13px" font-style="normal" font-weight="bold" text-decoration="none" x="163.082275390625" y="58">NumberOperator</text></g></g><g transform="translate(-10,-10) scale(1,1)"><path fill="#C0C0C0" stroke="none" d="M 326.811279296875 38.5 C 326.811279296875 32.1487248 331.960004096875 27 338.311279296875 27 C 344.662554496875 27 349.811279296875 32.1487248 349.811279296875 38.5 C 349.811279296875 44.8512752 344.662554496875 50 338.311279296875 50 C 331.960004096875 50 326.811279296875 44.8512752 326.811279296875 38.5 Z" opacity="0.2"/></g><g transform="translate(-10,-10) scale(1,1)"><path fill="#ffffff" stroke="none" d="M 319.811279296875 31.5 C 319.811279296875 25.1487248 324.960004096875 20 331.311279296875 20 C 337.662554496875 20 342.811279296875 25.1487248 342.811279296875 31.5 C 342.811279296875 37.8512752 337.662554496875 43 331.311279296875 43 C 324.960004096875 43 319.811279296875 37.8512752 319.811279296875 31.5 Z"/></g><g transform="translate(-10,-10) scale(1,1)"><path fill="none" stroke="#000000" d="M 319.811279296875 31.5 C 319.811279296875 25.1487248 324.960004096875 20 331.311279296875 20 C 337.662554496875 20 342.811279296875 25.1487248 342.811279296875 31.5 C 342.811279296875 37.8512752 337.662554496875 43 331.311279296875 43 C 324.960004096875 43 319.811279296875 37.8512752 319.811279296875 31.5 Z" stroke-miterlimit="10"/></g><g transform="translate(-10,-10) scale(1,1)"><g><path fill="none" stroke="none"/><text fill="#000000" stroke="none" font-family="Arial" font-size="13px" font-style="normal" font-weight="bold" text-decoration="none" x="305.660400390625" y="62.5">Operator</text></g></g><g transform="translate(-10,-10) scale(1,1)"><path fill="none" stroke="#000000" d="M 332 98 Q 332 84 332 69" stroke-miterlimit="10"/></g><g transform="translate(-10,-10) scale(1,1)"><path fill="none" stroke="#000000" d="M 336.209517756016 79.16267485762415 L 332 69 L 327.790482243984 79.16267485762415" stroke-miterlimit="10"/></g><g transform="translate(-10,-10) scale(1,1)"><g><path fill="none" stroke="none"/><text fill="#000000" stroke="none" font-family="Arial" font-size="13px" font-style="normal" font-weight="normal" text-decoration="none" x="290" y="101">#operator</text></g></g><g transform="translate(-10,-10) scale(1,1)"><rect fill="#C0C0C0" stroke="none" x="401.26171875" y="39" width="115.18994140625" height="24" opacity="0.2"/></g><g transform="translate(-10,-10) scale(1,1)"><rect fill="#ffffff" stroke="none" x="394.26171875" y="32" width="115.18994140625" height="24"/></g><g transform="translate(-10,-10) scale(1,1)"><path fill="none" stroke="#000000" d="M 394.26171875 32 L 509.45166015625 32 L 509.45166015625 56 L 394.26171875 56 L 394.26171875 32 Z Z" stroke-miterlimit="10"/></g><g transform="translate(-10,-10) scale(1,1)"><g><path fill="none" stroke="none"/><text fill="#000000" stroke="none" font-family="Arial" font-size="13px" font-style="normal" font-weight="bold" text-decoration="none" x="402.370361328125" y="51.5">OperatorFormats</text></g></g><g transform="translate(-10,-10) scale(1,1)"><rect fill="#C0C0C0" stroke="none" x="356.70263671875" y="179" width="111.552734375" height="24" opacity="0.2"/></g><g transform="translate(-10,-10) scale(1,1)"><rect fill="#ffffff" stroke="none" x="349.70263671875" y="172" width="111.552734375" height="24"/></g><g transform="translate(-10,-10) scale(1,1)"><path fill="none" stroke="#000000" d="M 349.70263671875 172 L 461.25537109375 172 L 461.25537109375 196 L 349.70263671875 196 L 349.70263671875 172 Z Z" stroke-miterlimit="10"/></g><g transform="translate(-10,-10) scale(1,1)"><g><path fill="none" stroke="none"/><text fill="#000000" stroke="none" font-family="Arial" font-size="13px" font-style="normal" font-weight="bold" text-decoration="none" x="358.87451171875" y="191.5">StringConstraint</text></g></g><g transform="translate(-10,-10) scale(1,1)"><path fill="none" stroke="#000000" d="M 405 171 Q 406 157 376 142" stroke-miterlimit="10"/></g><g transform="translate(-10,-10) scale(1,1)"><path fill="#FFFFFF" stroke="none" d="M 397.9446525938781 143.55955844199494 L 376 142 L 390.41443830992284 158.61998700990554"/></g><g transform="translate(-10,-10) scale(1,1)"><path fill="none" stroke="#000000" d="M 397.9446525938781 143.55955844199494 L 376 142 L 390.41443830992284 158.61998700990554 L 397.9446525938781 143.55955844199494" stroke-miterlimit="10"/></g><g transform="translate(-10,-10) scale(1,1)"><rect fill="#C0C0C0" stroke="none" x="547.45166015625" y="32.5" width="101.45361328125" height="37" opacity="0.2"/></g><g transform="translate(-10,-10) scale(1,1)"><rect fill="#ffffff" stroke="none" x="540.45166015625" y="25.5" width="101.45361328125" height="37"/></g><g transform="translate(-10,-10) scale(1,1)"><path fill="none" stroke="#000000" d="M 540.45166015625 25.5 L 641.9052734375 25.5 L 641.9052734375 62.5 L 540.45166015625 62.5 L 540.45166015625 25.5 Z Z" stroke-miterlimit="10"/></g><g transform="translate(-10,-10) scale(1,1)"><g><path fill="none" stroke="none"/><text fill="#000000" stroke="none" font-family="Arial" font-size="13px" font-style="normal" font-weight="normal" text-decoration="none" x="547.814453125" y="43">«enumeration»</text></g></g><g transform="translate(-10,-10) scale(1,1)"><g><path fill="none" stroke="none"/><text fill="#000000" stroke="none" font-family="Arial" font-size="13px" font-style="normal" font-weight="bold" text-decoration="none" x="548.547607421875" y="58">StringOperator</text></g></g><g transform="translate(-10,-10) scale(1,1)"><rect fill="#C0C0C0" stroke="none" x="679.9052734375" y="31.5" width="22.381445312499977" height="15" opacity="0.2"/></g><g transform="translate(-10,-10) scale(1,1)"><rect fill="#C0C0C0" stroke="none" x="679.9052734375" y="45.5" width="55.95361328125" height="25" opacity="0.2"/></g><g transform="translate(-10,-10) scale(1,1)"><rect fill="#ffffff" stroke="none" x="672.9052734375" y="39.5" width="55.95361328125" height="24"/></g><g transform="translate(-10,-10) scale(1,1)"><path fill="none" stroke="#000000" d="M 672.9052734375 39.5 L 728.85888671875 39.5 L 728.85888671875 63.5 L 672.9052734375 63.5 L 672.9052734375 39.5 Z Z" stroke-miterlimit="10"/></g><g transform="translate(-10,-10) scale(1,1)"><rect fill="#ffffff" stroke="none" x="672.9052734375" y="24.5" width="22.381445312499977" height="15"/></g><g transform="translate(-10,-10) scale(1,1)"><path fill="none" stroke="#000000" d="M 672.9052734375 24.5 L 695.28671875 24.5 L 695.28671875 39.5 L 672.9052734375 39.5 L 672.9052734375 24.5 Z Z" stroke-miterlimit="10"/></g><g transform="translate(-10,-10) scale(1,1)"><rect fill="#ffffff" stroke="none" x="672.9052734375" y="38.5" width="55.95361328125" height="25"/></g><g transform="translate(-10,-10) scale(1,1)"><path fill="none" stroke="#000000" d="M 672.9052734375 38.5 L 728.85888671875 38.5 L 728.85888671875 63.5 L 672.9052734375 63.5 L 672.9052734375 38.5 Z Z" stroke-miterlimit="10"/></g><g transform="translate(-10,-10) scale(1,1)"><g><path fill="none" stroke="none"/><text fill="#000000" stroke="none" font-family="Arial" font-size="13px" font-style="normal" font-weight="bold" text-decoration="none" x="679.5634765625" y="59">graphic</text></g></g></g></svg>