<svg version="1.1" xmlns="http://www.w3.org/2000/svg" xmlns:xlink="http://www.w3.org/1999/xlink" width="530.190185546875" height="141"><defs/><g><g transform="translate(-10,-10) scale(1,1)"><rect fill="#C0C0C0" stroke="none" x="27" y="124" width="133.72998046875" height="24" opacity="0.2"/></g><g transform="translate(-10,-10) scale(1,1)"><rect fill="#C0C0C0" stroke="none" x="107.263671875" y="106" width="62.46630859375" height="22" opacity="0.2"/></g><g transform="translate(-10,-10) scale(1,1)"><rect fill="#ffffff" stroke="none" x="20" y="117" width="133.72998046875" height="24"/></g><g transform="translate(-10,-10) scale(1,1)"><path fill="none" stroke="#000000" d="M 20 117 L 153.72998046875 117 L 153.72998046875 141 L 20 141 L 20 117 Z Z" stroke-miterlimit="10"/></g><g transform="translate(-10,-10) scale(1,1)"><g><path fill="none" stroke="none"/><text fill="#000000" stroke="none" font-family="Arial" font-size="13px" font-style="normal" font-weight="bold" text-decoration="none" x="37.727783203125" y="136.5">RandomChooser</text></g></g><g transform="translate(-10,-10) scale(1,1)"><rect fill="#ffffff" stroke="none" x="100.263671875" y="99" width="62.46630859375" height="22"/></g><g transform="translate(-10,-10) scale(1,1)"><path fill="none" stroke="#000000" d="M 100.263671875 99 L 162.72998046875 99 L 162.72998046875 121 L 100.263671875 121 L 100.263671875 99 Z Z" stroke-miterlimit="10" stroke-dasharray="3"/></g><g transform="translate(-10,-10) scale(1,1)"><g><path fill="none" stroke="none"/><text fill="#000000" stroke="none" font-family="Arial" font-size="13px" font-style="normal" font-weight="normal" text-decoration="none" x="105.263671875" y="116.5">E: Object</text></g></g><g transform="translate(-10,-10) scale(1,1)"><rect fill="#C0C0C0" stroke="none" x="335.633056640625" y="124" width="191.55712890625" height="24" opacity="0.2"/></g><g transform="translate(-10,-10) scale(1,1)"><rect fill="#C0C0C0" stroke="none" x="518.519287109375" y="106" width="17.6708984375" height="22" opacity="0.2"/></g><g transform="translate(-10,-10) scale(1,1)"><rect fill="#ffffff" stroke="none" x="328.633056640625" y="117" width="191.55712890625" height="24"/></g><g transform="translate(-10,-10) scale(1,1)"><path fill="none" stroke="#000000" d="M 328.633056640625 117 L 520.190185546875 117 L 520.190185546875 141 L 328.633056640625 141 L 328.633056640625 117 Z Z" stroke-miterlimit="10"/></g><g transform="translate(-10,-10) scale(1,1)"><g><path fill="none" stroke="none"/><text fill="#000000" stroke="none" font-family="Arial" font-size="13px" font-style="normal" font-weight="bold" text-decoration="none" x="348.534912109375" y="136.5">StochasticValueGenerator</text></g></g><g transform="translate(-10,-10) scale(1,1)"><rect fill="#ffffff" stroke="none" x="511.519287109375" y="99" width="17.6708984375" height="22"/></g><g transform="translate(-10,-10) scale(1,1)"><path fill="none" stroke="#000000" d="M 511.519287109375 99 L 529.190185546875 99 L 529.190185546875 121 L 511.519287109375 121 L 511.519287109375 99 Z Z" stroke-miterlimit="10" stroke-dasharray="3"/></g><g transform="translate(-10,-10) scale(1,1)"><g><path fill="none" stroke="none"/><text fill="#000000" stroke="none" font-family="Arial" font-size="13px" font-style="normal" font-weight="normal" text-decoration="none" x="516.519287109375" y="116.5">E</text></g></g><g transform="translate(-10,-10) scale(1,1)"><path fill="#C0C0C0" stroke="none" d="M 87.364990234375 38.5 C 87.364990234375 32.1487248 92.513715034375 27 98.864990234375 27 C 105.216265434375 27 110.364990234375 32.1487248 110.364990234375 38.5 C 110.364990234375 44.8512752 105.216265434375 50 98.864990234375 50 C 92.513715034375 50 87.364990234375 44.8512752 87.364990234375 38.5 Z" opacity="0.2"/></g><g transform="translate(-10,-10) scale(1,1)"><path fill="#ffffff" stroke="none" d="M 80.364990234375 31.5 C 80.364990234375 25.1487248 85.513715034375 20 91.864990234375 20 C 98.216265434375 20 103.364990234375 25.1487248 103.364990234375 31.5 C 103.364990234375 37.8512752 98.216265434375 43 91.864990234375 43 C 85.513715034375 43 80.364990234375 37.8512752 80.364990234375 31.5 Z"/></g><g transform="translate(-10,-10) scale(1,1)"><path fill="none" stroke="#000000" d="M 80.364990234375 31.5 C 80.364990234375 25.1487248 85.513715034375 20 91.864990234375 20 C 98.216265434375 20 103.364990234375 25.1487248 103.364990234375 31.5 C 103.364990234375 37.8512752 98.216265434375 43 91.864990234375 43 C 85.513715034375 43 80.364990234375 37.8512752 80.364990234375 31.5 Z" stroke-miterlimit="10"/></g><g transform="translate(-10,-10) scale(1,1)"><g><path fill="none" stroke="none"/><text fill="#000000" stroke="none" font-family="Arial" font-size="13px" font-style="normal" font-weight="bold" text-decoration="none" x="50.671875" y="62.5">ValueChooser</text></g></g><g transform="translate(-10,-10) scale(1,1)"><path fill="none" stroke="#000000" d="M 92 98 Q 92 84 91.3157894736842 43" stroke-miterlimit="10"/></g><g transform="translate(-10,-10) scale(1,1)"><rect fill="#C0C0C0" stroke="none" x="178.07177734375" y="39" width="174.4326171875" height="24" opacity="0.2"/></g><g transform="translate(-10,-10) scale(1,1)"><rect fill="#ffffff" stroke="none" x="171.07177734375" y="32" width="174.4326171875" height="24"/></g><g transform="translate(-10,-10) scale(1,1)"><path fill="none" stroke="#000000" d="M 171.07177734375 32 L 345.50439453125 32 L 345.50439453125 56 L 171.07177734375 56 L 171.07177734375 32 Z Z" stroke-miterlimit="10"/></g><g transform="translate(-10,-10) scale(1,1)"><g><path fill="none" stroke="none"/><text fill="#000000" stroke="none" font-family="Arial" font-size="13px" font-style="normal" font-weight="bold" text-decoration="none" x="180.957763671875" y="51.5">ValueGenerationException</text></g></g><g transform="translate(-10,-10) scale(1,1)"><path fill="#C0C0C0" stroke="none" d="M 424.91162109375 38.5 C 424.91162109375 32.1487248 430.06034589375 27 436.41162109375 27 C 442.76289629375 27 447.91162109375 32.1487248 447.91162109375 38.5 C 447.91162109375 44.8512752 442.76289629375 50 436.41162109375 50 C 430.06034589375 50 424.91162109375 44.8512752 424.91162109375 38.5 Z" opacity="0.2"/></g><g transform="translate(-10,-10) scale(1,1)"><path fill="#ffffff" stroke="none" d="M 417.91162109375 31.5 C 417.91162109375 25.1487248 423.06034589375 20 429.41162109375 20 C 435.76289629375 20 440.91162109375 25.1487248 440.91162109375 31.5 C 440.91162109375 37.8512752 435.76289629375 43 429.41162109375 43 C 423.06034589375 43 417.91162109375 37.8512752 417.91162109375 31.5 Z"/></g><g transform="translate(-10,-10) scale(1,1)"><path fill="none" stroke="#000000" d="M 417.91162109375 31.5 C 417.91162109375 25.1487248 423.06034589375 20 429.41162109375 20 C 435.76289629375 20 440.91162109375 25.1487248 440.91162109375 31.5 C 440.91162109375 37.8512752 435.76289629375 43 429.41162109375 43 C 423.06034589375 43 417.91162109375 37.8512752 417.91162109375 31.5 Z" stroke-miterlimit="10"/></g><g transform="translate(-10,-10) scale(1,1)"><g><path fill="none" stroke="none"/><text fill="#000000" stroke="none" font-family="Arial" font-size="13px" font-style="normal" font-weight="bold" text-decoration="none" x="383.521240234375" y="62.5">ValueGenerator</text></g></g><g transform="translate(-10,-10) scale(1,1)"><path fill="none" stroke="#000000" d="M 430 98 Q 430 84 429.3157894736842 43" stroke-miterlimit="10"/></g></g></svg>