<svg version="1.1" xmlns="http://www.w3.org/2000/svg" xmlns:xlink="http://www.w3.org/1999/xlink" width="463.64697265625" height="99"><defs/><g><g transform="translate(-10,-10) scale(1,1)"><rect fill="#C0C0C0" stroke="none" x="50.47998046875" y="27" width="51.630859375" height="24" opacity="0.2"/></g><g transform="translate(-10,-10) scale(1,1)"><rect fill="#ffffff" stroke="none" x="43.47998046875" y="20" width="51.630859375" height="24"/></g><g transform="translate(-10,-10) scale(1,1)"><path fill="none" stroke="#000000" d="M 43.47998046875 20 L 95.11083984375 20 L 95.11083984375 44 L 43.47998046875 44 L 43.47998046875 20 Z Z" stroke-miterlimit="10"/></g><g transform="translate(-10,-10) scale(1,1)"><g><path fill="none" stroke="none"/><text fill="#000000" stroke="none" font-family="Arial" font-size="13px" font-style="normal" font-weight="bold" text-decoration="none" x="49.062255859375" y="39.5">Clause</text></g></g><g transform="translate(-10,-10) scale(1,1)"><rect fill="#C0C0C0" stroke="none" x="133.11083984375" y="27" width="71.86083984375" height="24" opacity="0.2"/></g><g transform="translate(-10,-10) scale(1,1)"><rect fill="#ffffff" stroke="none" x="126.11083984375" y="20" width="71.86083984375" height="24"/></g><g transform="translate(-10,-10) scale(1,1)"><path fill="none" stroke="#000000" d="M 126.11083984375 20 L 197.9716796875 20 L 197.9716796875 44 L 126.11083984375 44 L 126.11083984375 20 Z Z" stroke-miterlimit="10"/></g><g transform="translate(-10,-10) scale(1,1)"><g><path fill="none" stroke="none"/><text fill="#000000" stroke="none" font-family="Arial" font-size="13px" font-style="normal" font-weight="bold" text-decoration="none" x="132.0517578125" y="39.5">ClauseSet</text></g></g><g transform="translate(-10,-10) scale(1,1)"><rect fill="#C0C0C0" stroke="none" x="235.9716796875" y="27" width="155.66259765625" height="24" opacity="0.2"/></g><g transform="translate(-10,-10) scale(1,1)"><rect fill="#ffffff" stroke="none" x="228.9716796875" y="20" width="155.66259765625" height="24"/></g><g transform="translate(-10,-10) scale(1,1)"><path fill="none" stroke="#000000" d="M 228.9716796875 20 L 384.63427734375 20 L 384.63427734375 44 L 228.9716796875 44 L 228.9716796875 20 Z Z" stroke-miterlimit="10"/></g><g transform="translate(-10,-10) scale(1,1)"><g><path fill="none" stroke="none"/><text fill="#000000" stroke="none" font-family="Arial" font-size="13px" font-style="normal" font-weight="bold" text-decoration="none" x="238.159423828125" y="39.5">DavisPutnamProcedure</text></g></g><g transform="translate(-10,-10) scale(1,1)"><rect fill="#C0C0C0" stroke="none" x="422.63427734375" y="27" width="48.0126953125" height="24" opacity="0.2"/></g><g transform="translate(-10,-10) scale(1,1)"><rect fill="#ffffff" stroke="none" x="415.63427734375" y="20" width="48.0126953125" height="24"/></g><g transform="translate(-10,-10) scale(1,1)"><path fill="none" stroke="#000000" d="M 415.63427734375 20 L 463.64697265625 20 L 463.64697265625 44 L 415.63427734375 44 L 415.63427734375 20 Z Z" stroke-miterlimit="10"/></g><g transform="translate(-10,-10) scale(1,1)"><g><path fill="none" stroke="none"/><text fill="#000000" stroke="none" font-family="Arial" font-size="13px" font-style="normal" font-weight="bold" text-decoration="none" x="421.93701171875" y="39.5">Literal</text></g></g><g transform="translate(-10,-10) scale(1,1)"><rect fill="#C0C0C0" stroke="none" x="27" y="82" width="98.5908203125" height="24" opacity="0.2"/></g><g transform="translate(-10,-10) scale(1,1)"><rect fill="#ffffff" stroke="none" x="20" y="75" width="98.5908203125" height="24"/></g><g transform="translate(-10,-10) scale(1,1)"><path fill="none" stroke="#000000" d="M 20 75 L 118.5908203125 75 L 118.5908203125 99 L 20 99 L 20 75 Z Z" stroke-miterlimit="10"/></g><g transform="translate(-10,-10) scale(1,1)"><g><path fill="none" stroke="none"/><text fill="#000000" stroke="none" font-family="Arial" font-size="13px" font-style="normal" font-weight="bold" text-decoration="none" x="27.38818359375" y="94.5">ResolveResult</text></g></g><g transform="translate(-10,-10) scale(1,1)"><path fill="none" stroke="#000000" d="M 69 74 Q 70 60 69 45" stroke-miterlimit="10"/></g><g transform="translate(-10,-10) scale(1,1)"><path fill="none" stroke="#000000" d="M 73.8762054144906 54.86015318114747 L 69 45 L 65.47581673711738 55.42017909297235" stroke-miterlimit="10"/></g><g transform="translate(-10,-10) scale(1,1)"><g><path fill="none" stroke="none"/><text fill="#000000" stroke="none" font-family="Arial" font-size="13px" font-style="normal" font-weight="normal" text-decoration="none" x="27" y="78">-resolvent</text></g></g></g></svg>