<svg version="1.1" xmlns="http://www.w3.org/2000/svg" xmlns:xlink="http://www.w3.org/1999/xlink" width="1582.58544921875" height="132"><defs/><g><g transform="translate(-10,-10) scale(1,1)"><rect fill="#C0C0C0" stroke="none" x="27" y="60" width="201.65625" height="24" opacity="0.2"/></g><g transform="translate(-10,-10) scale(1,1)"><rect fill="#C0C0C0" stroke="none" x="96.42822265625" y="27" width="141.22802734375" height="37" opacity="0.2"/></g><g transform="translate(-10,-10) scale(1,1)"><rect fill="#ffffff" stroke="none" x="20" y="53" width="201.65625" height="24"/></g><g transform="translate(-10,-10) scale(1,1)"><path fill="none" stroke="#000000" d="M 20 53 L 221.65625 53 L 221.65625 77 L 20 77 L 20 53 Z Z" stroke-miterlimit="10"/></g><g transform="translate(-10,-10) scale(1,1)"><g><path fill="none" stroke="none"/><text fill="#000000" stroke="none" font-family="Arial" font-size="13px" font-style="italic" font-weight="bold" text-decoration="none" x="40.260498046875" y="72.5">AbstractSOABaseContainer</text></g></g><g transform="translate(-10,-10) scale(1,1)"><rect fill="#ffffff" stroke="none" x="89.42822265625" y="20" width="141.22802734375" height="37"/></g><g transform="translate(-10,-10) scale(1,1)"><path fill="none" stroke="#000000" d="M 89.42822265625 20 L 230.65625 20 L 230.65625 57 L 89.42822265625 57 L 89.42822265625 20 Z Z" stroke-miterlimit="10" stroke-dasharray="3"/></g><g transform="translate(-10,-10) scale(1,1)"><g><path fill="none" stroke="none"/><text fill="#000000" stroke="none" font-family="Arial" font-size="13px" font-style="normal" font-weight="normal" text-decoration="none" x="94.42822265625" y="37.5">C: SOABase</text></g></g><g transform="translate(-10,-10) scale(1,1)"><g><path fill="none" stroke="none"/><text fill="#000000" stroke="none" font-family="Arial" font-size="13px" font-style="normal" font-weight="normal" text-decoration="none" x="94.42822265625" y="52.5">P: SOABaseProperties</text></g></g><g transform="translate(-10,-10) scale(1,1)"><rect fill="#C0C0C0" stroke="none" x="980.686767578125" y="115" width="68.2490234375" height="24" opacity="0.2"/></g><g transform="translate(-10,-10) scale(1,1)"><rect fill="#ffffff" stroke="none" x="973.686767578125" y="108" width="68.2490234375" height="24"/></g><g transform="translate(-10,-10) scale(1,1)"><path fill="none" stroke="#000000" d="M 973.686767578125 108 L 1041.935791015625 108 L 1041.935791015625 132 L 973.686767578125 132 L 973.686767578125 108 Z Z" stroke-miterlimit="10"/></g><g transform="translate(-10,-10) scale(1,1)"><g><path fill="none" stroke="none"/><text fill="#000000" stroke="none" font-family="Arial" font-size="13px" font-style="normal" font-weight="bold" text-decoration="none" x="979.26904296875" y="127.5">SOABase</text></g></g><g transform="translate(-10,-10) scale(1,1)"><rect fill="#C0C0C0" stroke="none" x="269.65625" y="43.5" width="149.1689453125" height="24" opacity="0.2"/></g><g transform="translate(-10,-10) scale(1,1)"><rect fill="#ffffff" stroke="none" x="262.65625" y="36.5" width="149.1689453125" height="24"/></g><g transform="translate(-10,-10) scale(1,1)"><path fill="none" stroke="#000000" d="M 262.65625 36.5 L 411.8251953125 36.5 L 411.8251953125 60.5 L 262.65625 60.5 L 262.65625 36.5 Z Z" stroke-miterlimit="10"/></g><g transform="translate(-10,-10) scale(1,1)"><g><path fill="none" stroke="none"/><text fill="#000000" stroke="none" font-family="Arial" font-size="13px" font-style="normal" font-weight="bold" text-decoration="none" x="270.403076171875" y="56">SOABaseCellRenderer</text></g></g><g transform="translate(-10,-10) scale(1,1)"><rect fill="#C0C0C0" stroke="none" x="752.3052978515625" y="115" width="170.103515625" height="24" opacity="0.2"/></g><g transform="translate(-10,-10) scale(1,1)"><rect fill="#ffffff" stroke="none" x="745.3052978515625" y="108" width="170.103515625" height="24"/></g><g transform="translate(-10,-10) scale(1,1)"><path fill="none" stroke="#000000" d="M 745.3052978515625 108 L 915.4088134765625 108 L 915.4088134765625 132 L 745.3052978515625 132 L 745.3052978515625 108 Z Z" stroke-miterlimit="10"/></g><g transform="translate(-10,-10) scale(1,1)"><g><path fill="none" stroke="none"/><text fill="#000000" stroke="none" font-family="Arial" font-size="13px" font-style="normal" font-weight="bold" text-decoration="none" x="754.1185302734375" y="127.5">SOABaseChangeDecision</text></g></g><g transform="translate(-10,-10) scale(1,1)"><rect fill="#C0C0C0" stroke="none" x="1111.369873046875" y="115" width="151.32080078125" height="24" opacity="0.2"/></g><g transform="translate(-10,-10) scale(1,1)"><rect fill="#ffffff" stroke="none" x="1104.369873046875" y="108" width="151.32080078125" height="24"/></g><g transform="translate(-10,-10) scale(1,1)"><path fill="none" stroke="#000000" d="M 1104.369873046875 108 L 1255.690673828125 108 L 1255.690673828125 132 L 1104.369873046875 132 L 1104.369873046875 108 Z Z" stroke-miterlimit="10"/></g><g transform="translate(-10,-10) scale(1,1)"><g><path fill="none" stroke="none"/><text fill="#000000" stroke="none" font-family="Arial" font-size="13px" font-style="normal" font-weight="bold" text-decoration="none" x="1112.100830078125" y="127.5">SOABaseChangeReply</text></g></g><g transform="translate(-10,-10) scale(1,1)"><rect fill="#C0C0C0" stroke="none" x="449.8251953125" y="43.5" width="137.578125" height="24" opacity="0.2"/></g><g transform="translate(-10,-10) scale(1,1)"><rect fill="#ffffff" stroke="none" x="442.8251953125" y="36.5" width="137.578125" height="24"/></g><g transform="translate(-10,-10) scale(1,1)"><path fill="none" stroke="#000000" d="M 442.8251953125 36.5 L 580.4033203125 36.5 L 580.4033203125 60.5 L 442.8251953125 60.5 L 442.8251953125 36.5 Z Z" stroke-miterlimit="10"/></g><g transform="translate(-10,-10) scale(1,1)"><g><path fill="none" stroke="none"/><text fill="#000000" stroke="none" font-family="Arial" font-size="13px" font-style="normal" font-weight="bold" text-decoration="none" x="450.91796875" y="56">SOABaseComboBox</text></g></g><g transform="translate(-10,-10) scale(1,1)"><rect fill="#C0C0C0" stroke="none" x="68.3681640625" y="115" width="128.919921875" height="24" opacity="0.2"/></g><g transform="translate(-10,-10) scale(1,1)"><rect fill="#ffffff" stroke="none" x="61.3681640625" y="108" width="128.919921875" height="24"/></g><g transform="translate(-10,-10) scale(1,1)"><path fill="none" stroke="#000000" d="M 61.3681640625 108 L 190.2880859375 108 L 190.2880859375 132 L 61.3681640625 132 L 61.3681640625 108 Z Z" stroke-miterlimit="10"/></g><g transform="translate(-10,-10) scale(1,1)"><g><path fill="none" stroke="none"/><text fill="#000000" stroke="none" font-family="Arial" font-size="13px" font-style="normal" font-weight="bold" text-decoration="none" x="69.102294921875" y="127.5">SOABaseContainer</text></g></g><g transform="translate(-10,-10) scale(1,1)"><path fill="none" stroke="#000000" d="M 125 107 Q 126 93 126 78" stroke-miterlimit="10"/></g><g transform="translate(-10,-10) scale(1,1)"><path fill="#FFFFFF" stroke="none" d="M 134.41903551203197 98.32534971524831 L 126 78 L 117.58096448796803 98.32534971524831"/></g><g transform="translate(-10,-10) scale(1,1)"><path fill="none" stroke="#000000" d="M 134.41903551203197 98.32534971524831 L 126 78 L 117.58096448796803 98.32534971524831 L 134.41903551203197 98.32534971524831" stroke-miterlimit="10"/></g><g transform="translate(-10,-10) scale(1,1)"><rect fill="#C0C0C0" stroke="none" x="618.4033203125" y="43.5" width="107.97265625" height="24" opacity="0.2"/></g><g transform="translate(-10,-10) scale(1,1)"><rect fill="#ffffff" stroke="none" x="611.4033203125" y="36.5" width="107.97265625" height="24"/></g><g transform="translate(-10,-10) scale(1,1)"><path fill="none" stroke="#000000" d="M 611.4033203125 36.5 L 719.3759765625 36.5 L 719.3759765625 60.5 L 611.4033203125 60.5 L 611.4033203125 36.5 Z Z" stroke-miterlimit="10"/></g><g transform="translate(-10,-10) scale(1,1)"><g><path fill="none" stroke="none"/><text fill="#000000" stroke="none" font-family="Arial" font-size="13px" font-style="normal" font-weight="bold" text-decoration="none" x="618.420166015625" y="56">SOABaseDialog</text></g></g><g transform="translate(-10,-10) scale(1,1)"><path fill="#C0C0C0" stroke="none" d="M 829.11865234375 43 C 829.11865234375 36.6487248 834.26737714375 31.5 840.61865234375 31.5 C 846.96992754375 31.5 852.11865234375 36.6487248 852.11865234375 43 C 852.11865234375 49.3512752 846.96992754375 54.5 840.61865234375 54.5 C 834.26737714375 54.5 829.11865234375 49.3512752 829.11865234375 43 Z" opacity="0.2"/></g><g transform="translate(-10,-10) scale(1,1)"><path fill="#ffffff" stroke="none" d="M 822.11865234375 36 C 822.11865234375 29.6487248 827.26737714375 24.5 833.61865234375 24.5 C 839.96992754375 24.5 845.11865234375 29.6487248 845.11865234375 36 C 845.11865234375 42.3512752 839.96992754375 47.5 833.61865234375 47.5 C 827.26737714375 47.5 822.11865234375 42.3512752 822.11865234375 36 Z"/></g><g transform="translate(-10,-10) scale(1,1)"><path fill="none" stroke="#000000" d="M 822.11865234375 36 C 822.11865234375 29.6487248 827.26737714375 24.5 833.61865234375 24.5 C 839.96992754375 24.5 845.11865234375 29.6487248 845.11865234375 36 C 845.11865234375 42.3512752 839.96992754375 47.5 833.61865234375 47.5 C 827.26737714375 47.5 822.11865234375 42.3512752 822.11865234375 36 Z" stroke-miterlimit="10"/></g><g transform="translate(-10,-10) scale(1,1)"><g><path fill="none" stroke="none"/><text fill="#000000" stroke="none" font-family="Arial" font-size="13px" font-style="normal" font-weight="bold" text-decoration="none" x="759.90966796875" y="67">SOABaseEditingInterface</text></g></g><g transform="translate(-10,-10) scale(1,1)"><path fill="none" stroke="#000000" d="M 973 115 Q 834 93 833.3026315789474 47.5" stroke-miterlimit="10"/></g><g transform="translate(-10,-10) scale(1,1)"><path fill="#C0C0C0" stroke="none" d="M 1002.771728515625 43 C 1002.771728515625 36.6487248 1007.920453315625 31.5 1014.271728515625 31.5 C 1020.623003715625 31.5 1025.771728515625 36.6487248 1025.771728515625 43 C 1025.771728515625 49.3512752 1020.623003715625 54.5 1014.271728515625 54.5 C 1007.920453315625 54.5 1002.771728515625 49.3512752 1002.771728515625 43 Z" opacity="0.2"/></g><g transform="translate(-10,-10) scale(1,1)"><path fill="#ffffff" stroke="none" d="M 995.771728515625 36 C 995.771728515625 29.6487248 1000.920453315625 24.5 1007.271728515625 24.5 C 1013.623003715625 24.5 1018.771728515625 29.6487248 1018.771728515625 36 C 1018.771728515625 42.3512752 1013.623003715625 47.5 1007.271728515625 47.5 C 1000.920453315625 47.5 995.771728515625 42.3512752 995.771728515625 36 Z"/></g><g transform="translate(-10,-10) scale(1,1)"><path fill="none" stroke="#000000" d="M 995.771728515625 36 C 995.771728515625 29.6487248 1000.920453315625 24.5 1007.271728515625 24.5 C 1013.623003715625 24.5 1018.771728515625 29.6487248 1018.771728515625 36 C 1018.771728515625 42.3512752 1013.623003715625 47.5 1007.271728515625 47.5 C 1000.920453315625 47.5 995.771728515625 42.3512752 995.771728515625 36 Z" stroke-miterlimit="10"/></g><g transform="translate(-10,-10) scale(1,1)"><g><path fill="none" stroke="none"/><text fill="#000000" stroke="none" font-family="Arial" font-size="13px" font-style="normal" font-weight="bold" text-decoration="none" x="955.60498046875" y="67">SOABaseListener</text></g></g><g transform="translate(-10,-10) scale(1,1)"><path fill="none" stroke="#000000" d="M 908 107 Q 993 93 999 74" stroke-miterlimit="10"/></g><g transform="translate(-10,-10) scale(1,1)"><path fill="none" stroke="#000000" d="M 999.9538229789349 84.95856841584957 L 999 74 L 991.9255766575125 82.42333273540038" stroke-miterlimit="10"/></g><g transform="translate(-10,-10) scale(1,1)"><g><path fill="none" stroke="none"/><text fill="#000000" stroke="none" font-family="Arial" font-size="13px" font-style="normal" font-weight="normal" text-decoration="none" x="942" y="101">+vetoObject</text></g></g><g transform="translate(-10,-10) scale(1,1)"><path fill="none" stroke="#000000" d="M 1104 107 Q 1023 93 1016 74" stroke-miterlimit="10"/></g><g transform="translate(-10,-10) scale(1,1)"><path fill="none" stroke="#000000" d="M 1023.4632631697777 82.0808231547683 L 1016 74 L 1015.5633191468237 84.99132884743557" stroke-miterlimit="10"/></g><g transform="translate(-10,-10) scale(1,1)"><g><path fill="none" stroke="none"/><text fill="#000000" stroke="none" font-family="Arial" font-size="13px" font-style="normal" font-weight="normal" text-decoration="none" x="987" y="110">+source</text></g></g><g transform="translate(-10,-10) scale(1,1)"><rect fill="#C0C0C0" stroke="none" x="1104.68212890625" y="43.5" width="168.6435546875" height="24" opacity="0.2"/></g><g transform="translate(-10,-10) scale(1,1)"><rect fill="#ffffff" stroke="none" x="1097.68212890625" y="36.5" width="168.6435546875" height="24"/></g><g transform="translate(-10,-10) scale(1,1)"><path fill="none" stroke="#000000" d="M 1097.68212890625 36.5 L 1266.32568359375 36.5 L 1266.32568359375 60.5 L 1097.68212890625 60.5 L 1097.68212890625 36.5 Z Z" stroke-miterlimit="10"/></g><g transform="translate(-10,-10) scale(1,1)"><g><path fill="none" stroke="none"/><text fill="#000000" stroke="none" font-family="Arial" font-size="13px" font-style="normal" font-weight="bold" text-decoration="none" x="1107.5712890625" y="56">SOABaseListenerSupport</text></g></g><g transform="translate(-10,-10) scale(1,1)"><path fill="none" stroke="#000000" d="M 1043 114 Q 1183 93 1182 62" stroke-miterlimit="10"/></g><g transform="translate(-10,-10) scale(1,1)"><path fill="none" stroke="#000000" d="M 1186.5349870761204 72.02167112907932 L 1182 62 L 1178.1203284999247 72.29311172831144" stroke-miterlimit="10"/></g><g transform="translate(-10,-10) scale(1,1)"><g><path fill="none" stroke="none"/><text fill="#000000" stroke="none" font-family="Arial" font-size="13px" font-style="normal" font-weight="normal" text-decoration="none" x="1097" y="95">#contextListenerSupport</text></g></g><g transform="translate(-10,-10) scale(1,1)"><rect fill="#C0C0C0" stroke="none" x="1304.32568359375" y="43.5" width="132.55078125" height="24" opacity="0.2"/></g><g transform="translate(-10,-10) scale(1,1)"><rect fill="#ffffff" stroke="none" x="1297.32568359375" y="36.5" width="132.55078125" height="24"/></g><g transform="translate(-10,-10) scale(1,1)"><path fill="none" stroke="#000000" d="M 1297.32568359375 36.5 L 1429.87646484375 36.5 L 1429.87646484375 60.5 L 1297.32568359375 60.5 L 1297.32568359375 36.5 Z Z" stroke-miterlimit="10"/></g><g transform="translate(-10,-10) scale(1,1)"><g><path fill="none" stroke="none"/><text fill="#000000" stroke="none" font-family="Arial" font-size="13px" font-style="normal" font-weight="bold" text-decoration="none" x="1305.434326171875" y="56">SOABaseProperties</text></g></g><g transform="translate(-10,-10) scale(1,1)"><rect fill="#C0C0C0" stroke="none" x="1467.87646484375" y="37" width="121.708984375" height="37" opacity="0.2"/></g><g transform="translate(-10,-10) scale(1,1)"><rect fill="#ffffff" stroke="none" x="1460.87646484375" y="30" width="121.708984375" height="37"/></g><g transform="translate(-10,-10) scale(1,1)"><path fill="none" stroke="#000000" d="M 1460.87646484375 30 L 1582.58544921875 30 L 1582.58544921875 67 L 1460.87646484375 67 L 1460.87646484375 30 Z Z" stroke-miterlimit="10"/></g><g transform="translate(-10,-10) scale(1,1)"><g><path fill="none" stroke="none"/><text fill="#000000" stroke="none" font-family="Arial" font-size="13px" font-style="normal" font-weight="normal" text-decoration="none" x="1478.366943359375" y="47.5">«enumeration»</text></g></g><g transform="translate(-10,-10) scale(1,1)"><g><path fill="none" stroke="none"/><text fill="#000000" stroke="none" font-family="Arial" font-size="13px" font-style="normal" font-weight="bold" text-decoration="none" x="1468.623291015625" y="62.5">SOABaseProperty</text></g></g></g></svg>