<svg version="1.1" xmlns="http://www.w3.org/2000/svg" xmlns:xlink="http://www.w3.org/1999/xlink" width="1026.2132568359375" height="251"><defs/><g><g transform="translate(-10,-10) scale(1,1)"><rect fill="#C0C0C0" stroke="none" x="268.90087890625" y="124" width="214.6181640625" height="24" opacity="0.2"/></g><g transform="translate(-10,-10) scale(1,1)"><rect fill="#C0C0C0" stroke="none" x="357.0673828125" y="106" width="135.45166015625" height="22" opacity="0.2"/></g><g transform="translate(-10,-10) scale(1,1)"><rect fill="#ffffff" stroke="none" x="261.90087890625" y="117" width="214.6181640625" height="24"/></g><g transform="translate(-10,-10) scale(1,1)"><path fill="none" stroke="#000000" d="M 261.90087890625 117 L 476.51904296875 117 L 476.51904296875 141 L 261.90087890625 141 L 261.90087890625 117 Z Z" stroke-miterlimit="10"/></g><g transform="translate(-10,-10) scale(1,1)"><g><path fill="none" stroke="none"/><text fill="#000000" stroke="none" font-family="Arial" font-size="13px" font-style="italic" font-weight="bold" text-decoration="none" x="283.580078125" y="136.5">AbstractComponentContainer</text></g></g><g transform="translate(-10,-10) scale(1,1)"><rect fill="#ffffff" stroke="none" x="350.0673828125" y="99" width="135.45166015625" height="22"/></g><g transform="translate(-10,-10) scale(1,1)"><path fill="none" stroke="#000000" d="M 350.0673828125 99 L 485.51904296875 99 L 485.51904296875 121 L 350.0673828125 121 L 350.0673828125 99 Z Z" stroke-miterlimit="10" stroke-dasharray="3"/></g><g transform="translate(-10,-10) scale(1,1)"><g><path fill="none" stroke="none"/><text fill="#000000" stroke="none" font-family="Arial" font-size="13px" font-style="normal" font-weight="normal" text-decoration="none" x="355.0673828125" y="116.5">O: NamedComponent</text></g></g><g transform="translate(-10,-10) scale(1,1)"><rect fill="#C0C0C0" stroke="none" x="288.58544921875" y="179" width="185.2490234375" height="24" opacity="0.2"/></g><g transform="translate(-10,-10) scale(1,1)"><rect fill="#ffffff" stroke="none" x="281.58544921875" y="172" width="185.2490234375" height="24"/></g><g transform="translate(-10,-10) scale(1,1)"><path fill="none" stroke="#000000" d="M 281.58544921875 172 L 466.83447265625 172 L 466.83447265625 196 L 281.58544921875 196 L 281.58544921875 172 Z Z" stroke-miterlimit="10"/></g><g transform="translate(-10,-10) scale(1,1)"><g><path fill="none" stroke="none"/><text fill="#000000" stroke="none" font-family="Arial" font-size="13px" font-style="italic" font-weight="bold" text-decoration="none" x="293.28369140625" y="191.5">AbstractProjectComponents</text></g></g><g transform="translate(-10,-10) scale(1,1)"><path fill="none" stroke="#000000" d="M 374 171 Q 375 157 375 142" stroke-miterlimit="10"/></g><g transform="translate(-10,-10) scale(1,1)"><path fill="none" stroke="#000000" d="M 379.209517756016 152.16267485762415 L 375 142 L 370.790482243984 152.16267485762415" stroke-miterlimit="10"/></g><g transform="translate(-10,-10) scale(1,1)"><g><path fill="none" stroke="none"/><text fill="#000000" stroke="none" font-family="Arial" font-size="13px" font-style="normal" font-weight="normal" text-decoration="none" x="295" y="174">-componentContainers</text></g></g><g transform="translate(-10,-10) scale(1,1)"><g><path fill="none" stroke="none"/><text fill="#000000" stroke="none" font-family="Arial" font-size="13px" font-style="normal" font-weight="normal" text-decoration="none" x="267" y="177">{readOnly, collection="List"}</text></g></g><g transform="translate(-10,-10) scale(1,1)"><g><path fill="none" stroke="none"/><text fill="#000000" stroke="none" font-family="Arial" font-size="13px" font-style="normal" font-weight="normal" text-decoration="none" x="385" y="170">*</text></g></g><g transform="translate(-10,-10) scale(1,1)"><rect fill="#C0C0C0" stroke="none" x="341.0906982421875" y="234" width="253.1435546875" height="24" opacity="0.2"/></g><g transform="translate(-10,-10) scale(1,1)"><rect fill="#ffffff" stroke="none" x="334.0906982421875" y="227" width="253.1435546875" height="24"/></g><g transform="translate(-10,-10) scale(1,1)"><path fill="none" stroke="#000000" d="M 334.0906982421875 227 L 587.2342529296875 227 L 587.2342529296875 251 L 334.0906982421875 251 L 334.0906982421875 227 Z Z" stroke-miterlimit="10"/></g><g transform="translate(-10,-10) scale(1,1)"><g><path fill="none" stroke="none"/><text fill="#000000" stroke="none" font-family="Arial" font-size="13px" font-style="italic" font-weight="bold" text-decoration="none" x="349.7689208984375" y="246.5">AbstractSwitchWorkingDirectoryAction</text></g></g><g transform="translate(-10,-10) scale(1,1)"><rect fill="#C0C0C0" stroke="none" x="721.975830078125" y="179" width="211.2490234375" height="24" opacity="0.2"/></g><g transform="translate(-10,-10) scale(1,1)"><rect fill="#ffffff" stroke="none" x="714.975830078125" y="172" width="211.2490234375" height="24"/></g><g transform="translate(-10,-10) scale(1,1)"><path fill="none" stroke="#000000" d="M 714.975830078125 172 L 926.224853515625 172 L 926.224853515625 196 L 714.975830078125 196 L 714.975830078125 172 Z Z" stroke-miterlimit="10"/></g><g transform="translate(-10,-10) scale(1,1)"><g><path fill="none" stroke="none"/><text fill="#000000" stroke="none" font-family="Arial" font-size="13px" font-style="italic" font-weight="bold" text-decoration="none" x="728.851318359375" y="191.5">AbstractWorkingDirectoryAction</text></g></g><g transform="translate(-10,-10) scale(1,1)"><path fill="none" stroke="#000000" d="M 460 226 Q 461 212 714 192" stroke-miterlimit="10"/></g><g transform="translate(-10,-10) scale(1,1)"><path fill="#FFFFFF" stroke="none" d="M 694.4013285536827 201.99460242027206 L 714 192 L 693.0743953714241 185.20889766469975"/></g><g transform="translate(-10,-10) scale(1,1)"><path fill="none" stroke="#000000" d="M 694.4013285536827 201.99460242027206 L 714 192 L 693.0743953714241 185.20889766469975 L 694.4013285536827 201.99460242027206" stroke-miterlimit="10"/></g><g transform="translate(-10,-10) scale(1,1)"><rect fill="#C0C0C0" stroke="none" x="695.04541015625" y="124" width="255.10986328125" height="24" opacity="0.2"/></g><g transform="translate(-10,-10) scale(1,1)"><rect fill="#C0C0C0" stroke="none" x="941.484375" y="106" width="17.6708984375" height="22" opacity="0.2"/></g><g transform="translate(-10,-10) scale(1,1)"><rect fill="#ffffff" stroke="none" x="688.04541015625" y="117" width="255.10986328125" height="24"/></g><g transform="translate(-10,-10) scale(1,1)"><path fill="none" stroke="#000000" d="M 688.04541015625 117 L 943.1552734375 117 L 943.1552734375 141 L 688.04541015625 141 L 688.04541015625 117 Z Z" stroke-miterlimit="10"/></g><g transform="translate(-10,-10) scale(1,1)"><g><path fill="none" stroke="none"/><text fill="#000000" stroke="none" font-family="Arial" font-size="13px" font-style="italic" font-weight="bold" text-decoration="none" x="712.292236328125" y="136.5">AbstractWorkingDirectoryProperties</text></g></g><g transform="translate(-10,-10) scale(1,1)"><rect fill="#ffffff" stroke="none" x="934.484375" y="99" width="17.6708984375" height="22"/></g><g transform="translate(-10,-10) scale(1,1)"><path fill="none" stroke="#000000" d="M 934.484375 99 L 952.1552734375 99 L 952.1552734375 121 L 934.484375 121 L 934.484375 99 Z Z" stroke-miterlimit="10" stroke-dasharray="3"/></g><g transform="translate(-10,-10) scale(1,1)"><g><path fill="none" stroke="none"/><text fill="#000000" stroke="none" font-family="Arial" font-size="13px" font-style="normal" font-weight="normal" text-decoration="none" x="939.484375" y="116.5">E</text></g></g><g transform="translate(-10,-10) scale(1,1)"><path fill="none" stroke="#000000" d="M 820 171 Q 821 157 821 142" stroke-miterlimit="10"/></g><g transform="translate(-10,-10) scale(1,1)"><path fill="none" stroke="#000000" d="M 825.209517756016 152.16267485762415 L 821 142 L 816.790482243984 152.16267485762415" stroke-miterlimit="10"/></g><g transform="translate(-10,-10) scale(1,1)"><g><path fill="none" stroke="none"/><text fill="#000000" stroke="none" font-family="Arial" font-size="13px" font-style="normal" font-weight="normal" text-decoration="none" x="774" y="174">#properties</text></g></g><g transform="translate(-10,-10) scale(1,1)"><path fill="#C0C0C0" stroke="none" d="M 120.950439453125 38.5 C 120.950439453125 32.1487248 126.099164253125 27 132.450439453125 27 C 138.801714653125 27 143.950439453125 32.1487248 143.950439453125 38.5 C 143.950439453125 44.8512752 138.801714653125 50 132.450439453125 50 C 126.099164253125 50 120.950439453125 44.8512752 120.950439453125 38.5 Z" opacity="0.2"/></g><g transform="translate(-10,-10) scale(1,1)"><path fill="#ffffff" stroke="none" d="M 113.950439453125 31.5 C 113.950439453125 25.1487248 119.099164253125 20 125.450439453125 20 C 131.801714653125 20 136.950439453125 25.1487248 136.950439453125 31.5 C 136.950439453125 37.8512752 131.801714653125 43 125.450439453125 43 C 119.099164253125 43 113.950439453125 37.8512752 113.950439453125 31.5 Z"/></g><g transform="translate(-10,-10) scale(1,1)"><path fill="none" stroke="#000000" d="M 113.950439453125 31.5 C 113.950439453125 25.1487248 119.099164253125 20 125.450439453125 20 C 131.801714653125 20 136.950439453125 25.1487248 136.950439453125 31.5 C 136.950439453125 37.8512752 131.801714653125 43 125.450439453125 43 C 119.099164253125 43 113.950439453125 37.8512752 113.950439453125 31.5 Z" stroke-miterlimit="10"/></g><g transform="translate(-10,-10) scale(1,1)"><g><path fill="none" stroke="none"/><text fill="#000000" stroke="none" font-family="Arial" font-size="13px" font-style="normal" font-weight="bold" text-decoration="none" x="68.721435546875" y="62.5">ComponentListener</text></g></g><g transform="translate(-10,-10) scale(1,1)"><rect fill="#C0C0C0" stroke="none" x="27" y="124" width="200.90087890625" height="24" opacity="0.2"/></g><g transform="translate(-10,-10) scale(1,1)"><rect fill="#C0C0C0" stroke="none" x="217.7890625" y="106" width="19.11181640625" height="22" opacity="0.2"/></g><g transform="translate(-10,-10) scale(1,1)"><rect fill="#ffffff" stroke="none" x="20" y="117" width="200.90087890625" height="24"/></g><g transform="translate(-10,-10) scale(1,1)"><path fill="none" stroke="#000000" d="M 20 117 L 220.90087890625 117 L 220.90087890625 141 L 20 141 L 20 117 Z Z" stroke-miterlimit="10"/></g><g transform="translate(-10,-10) scale(1,1)"><g><path fill="none" stroke="none"/><text fill="#000000" stroke="none" font-family="Arial" font-size="13px" font-style="normal" font-weight="bold" text-decoration="none" x="40.95556640625" y="136.5">ComponentListenerAdapter</text></g></g><g transform="translate(-10,-10) scale(1,1)"><rect fill="#ffffff" stroke="none" x="210.7890625" y="99" width="19.11181640625" height="22"/></g><g transform="translate(-10,-10) scale(1,1)"><path fill="none" stroke="#000000" d="M 210.7890625 99 L 229.90087890625 99 L 229.90087890625 121 L 210.7890625 121 L 210.7890625 99 Z Z" stroke-miterlimit="10" stroke-dasharray="3"/></g><g transform="translate(-10,-10) scale(1,1)"><g><path fill="none" stroke="none"/><text fill="#000000" stroke="none" font-family="Arial" font-size="13px" font-style="normal" font-weight="normal" text-decoration="none" x="215.7890625" y="116.5">O</text></g></g><g transform="translate(-10,-10) scale(1,1)"><path fill="none" stroke="#000000" d="M 126 98 Q 126 84 125.3157894736842 43" stroke-miterlimit="10"/></g><g transform="translate(-10,-10) scale(1,1)"><rect fill="#C0C0C0" stroke="none" x="275.4072265625" y="48" width="201.60546875" height="24" opacity="0.2"/></g><g transform="translate(-10,-10) scale(1,1)"><rect fill="#C0C0C0" stroke="none" x="466.90087890625" y="30" width="19.11181640625" height="22" opacity="0.2"/></g><g transform="translate(-10,-10) scale(1,1)"><rect fill="#ffffff" stroke="none" x="268.4072265625" y="41" width="201.60546875" height="24"/></g><g transform="translate(-10,-10) scale(1,1)"><path fill="none" stroke="#000000" d="M 268.4072265625 41 L 470.0126953125 41 L 470.0126953125 65 L 268.4072265625 65 L 268.4072265625 41 Z Z" stroke-miterlimit="10"/></g><g transform="translate(-10,-10) scale(1,1)"><g><path fill="none" stroke="none"/><text fill="#000000" stroke="none" font-family="Arial" font-size="13px" font-style="normal" font-weight="bold" text-decoration="none" x="289.715087890625" y="60.5">ComponentListenerSupport</text></g></g><g transform="translate(-10,-10) scale(1,1)"><rect fill="#ffffff" stroke="none" x="459.90087890625" y="23" width="19.11181640625" height="22"/></g><g transform="translate(-10,-10) scale(1,1)"><path fill="none" stroke="#000000" d="M 459.90087890625 23 L 479.0126953125 23 L 479.0126953125 45 L 459.90087890625 45 L 459.90087890625 23 Z Z" stroke-miterlimit="10" stroke-dasharray="3"/></g><g transform="translate(-10,-10) scale(1,1)"><g><path fill="none" stroke="none"/><text fill="#000000" stroke="none" font-family="Arial" font-size="13px" font-style="normal" font-weight="normal" text-decoration="none" x="464.90087890625" y="40.5">O</text></g></g><g transform="translate(-10,-10) scale(1,1)"><path fill="none" stroke="#000000" d="M 375 98 Q 375 84 375 66" stroke-miterlimit="10"/></g><g transform="translate(-10,-10) scale(1,1)"><path fill="none" stroke="#000000" d="M 379.209517756016 76.16267485762415 L 375 66 L 370.790482243984 76.16267485762415" stroke-miterlimit="10"/></g><g transform="translate(-10,-10) scale(1,1)"><g><path fill="none" stroke="none"/><text fill="#000000" stroke="none" font-family="Arial" font-size="13px" font-style="normal" font-weight="normal" text-decoration="none" x="313" y="98">#listenerSupport</text></g></g><g transform="translate(-10,-10) scale(1,1)"><g><path fill="none" stroke="none"/><text fill="#000000" stroke="none" font-family="Arial" font-size="13px" font-style="normal" font-weight="normal" text-decoration="none" x="316" y="101">{readOnly}</text></g></g><g transform="translate(-10,-10) scale(1,1)"><rect fill="#C0C0C0" stroke="none" x="625.2342529296875" y="234" width="185.24267578125" height="24" opacity="0.2"/></g><g transform="translate(-10,-10) scale(1,1)"><rect fill="#ffffff" stroke="none" x="618.2342529296875" y="227" width="185.24267578125" height="24"/></g><g transform="translate(-10,-10) scale(1,1)"><path fill="none" stroke="#000000" d="M 618.2342529296875 227 L 803.4769287109375 227 L 803.4769287109375 251 L 618.2342529296875 251 L 618.2342529296875 227 Z Z" stroke-miterlimit="10"/></g><g transform="translate(-10,-10) scale(1,1)"><g><path fill="none" stroke="none"/><text fill="#000000" stroke="none" font-family="Arial" font-size="13px" font-style="normal" font-weight="bold" text-decoration="none" x="629.9451904296875" y="246.5">NewWorkingDirectoryAction</text></g></g><g transform="translate(-10,-10) scale(1,1)"><path fill="none" stroke="#000000" d="M 710 226 Q 711 212 769 197" stroke-miterlimit="10"/></g><g transform="translate(-10,-10) scale(1,1)"><path fill="#FFFFFF" stroke="none" d="M 751.4300573155124 210.23998164892302 L 769 197 L 747.2140935760009 193.93825518947872"/></g><g transform="translate(-10,-10) scale(1,1)"><path fill="none" stroke="#000000" d="M 751.4300573155124 210.23998164892302 L 769 197 L 747.2140935760009 193.93825518947872 L 751.4300573155124 210.23998164892302" stroke-miterlimit="10"/></g><g transform="translate(-10,-10) scale(1,1)"><rect fill="#C0C0C0" stroke="none" x="841.4769287109375" y="234" width="191.736328125" height="24" opacity="0.2"/></g><g transform="translate(-10,-10) scale(1,1)"><rect fill="#ffffff" stroke="none" x="834.4769287109375" y="227" width="191.736328125" height="24"/></g><g transform="translate(-10,-10) scale(1,1)"><path fill="none" stroke="#000000" d="M 834.4769287109375 227 L 1026.2132568359375 227 L 1026.2132568359375 251 L 834.4769287109375 251 L 834.4769287109375 227 Z Z" stroke-miterlimit="10"/></g><g transform="translate(-10,-10) scale(1,1)"><g><path fill="none" stroke="none"/><text fill="#000000" stroke="none" font-family="Arial" font-size="13px" font-style="normal" font-weight="bold" text-decoration="none" x="846.5369873046875" y="246.5">OpenWorkingDirectoryAction</text></g></g><g transform="translate(-10,-10) scale(1,1)"><path fill="none" stroke="#000000" d="M 930 226 Q 931 212 872 197" stroke-miterlimit="10"/></g><g transform="translate(-10,-10) scale(1,1)"><path fill="#FFFFFF" stroke="none" d="M 893.7731293987848 193.8486770740259 L 872 197 L 889.6242492561979 210.16760563486804"/></g><g transform="translate(-10,-10) scale(1,1)"><path fill="none" stroke="#000000" d="M 893.7731293987848 193.8486770740259 L 872 197 L 889.6242492561979 210.16760563486804 L 893.7731293987848 193.8486770740259" stroke-miterlimit="10"/></g><g transform="translate(-10,-10) scale(1,1)"><rect fill="#C0C0C0" stroke="none" x="518.0126953125" y="39" width="187.4072265625" height="24" opacity="0.2"/></g><g transform="translate(-10,-10) scale(1,1)"><rect fill="#ffffff" stroke="none" x="511.0126953125" y="32" width="187.4072265625" height="24"/></g><g transform="translate(-10,-10) scale(1,1)"><path fill="none" stroke="#000000" d="M 511.0126953125 32 L 698.419921875 32 L 698.419921875 56 L 511.0126953125 56 L 511.0126953125 32 Z Z" stroke-miterlimit="10"/></g><g transform="translate(-10,-10) scale(1,1)"><g><path fill="none" stroke="none"/><text fill="#000000" stroke="none" font-family="Arial" font-size="13px" font-style="normal" font-weight="bold" text-decoration="none" x="522.33642578125" y="51.5">ProjectComponentException</text></g></g><g transform="translate(-10,-10) scale(1,1)"><path fill="#C0C0C0" stroke="none" d="M 816.100341796875 38.5 C 816.100341796875 32.1487248 821.249066596875 27 827.600341796875 27 C 833.951616996875 27 839.100341796875 32.1487248 839.100341796875 38.5 C 839.100341796875 44.8512752 833.951616996875 50 827.600341796875 50 C 821.249066596875 50 816.100341796875 44.8512752 816.100341796875 38.5 Z" opacity="0.2"/></g><g transform="translate(-10,-10) scale(1,1)"><path fill="#ffffff" stroke="none" d="M 809.100341796875 31.5 C 809.100341796875 25.1487248 814.249066596875 20 820.600341796875 20 C 826.951616996875 20 832.100341796875 25.1487248 832.100341796875 31.5 C 832.100341796875 37.8512752 826.951616996875 43 820.600341796875 43 C 814.249066596875 43 809.100341796875 37.8512752 809.100341796875 31.5 Z"/></g><g transform="translate(-10,-10) scale(1,1)"><path fill="none" stroke="#000000" d="M 809.100341796875 31.5 C 809.100341796875 25.1487248 814.249066596875 20 820.600341796875 20 C 826.951616996875 20 832.100341796875 25.1487248 832.100341796875 31.5 C 832.100341796875 37.8512752 826.951616996875 43 820.600341796875 43 C 814.249066596875 43 809.100341796875 37.8512752 809.100341796875 31.5 Z" stroke-miterlimit="10"/></g><g transform="translate(-10,-10) scale(1,1)"><g><path fill="none" stroke="none"/><text fill="#000000" stroke="none" font-family="Arial" font-size="13px" font-style="normal" font-weight="bold" text-decoration="none" x="739.312255859375" y="62.5">WDPropertyChangeListener</text></g></g><g transform="translate(-10,-10) scale(1,1)"><path fill="none" stroke="#000000" d="M 821 98 Q 821 84 821 69" stroke-miterlimit="10"/></g><g transform="translate(-10,-10) scale(1,1)"><path fill="none" stroke="#000000" d="M 825.209517756016 79.16267485762415 L 821 69 L 816.790482243984 79.16267485762415" stroke-miterlimit="10"/></g><g transform="translate(-10,-10) scale(1,1)"><g><path fill="none" stroke="none"/><text fill="#000000" stroke="none" font-family="Arial" font-size="13px" font-style="normal" font-weight="normal" text-decoration="none" x="780" y="101">-listeners</text></g></g><g transform="translate(-10,-10) scale(1,1)"><g><path fill="none" stroke="none"/><text fill="#000000" stroke="none" font-family="Arial" font-size="13px" font-style="normal" font-weight="normal" text-decoration="none" x="743" y="104">{collection="Set"}</text></g></g><g transform="translate(-10,-10) scale(1,1)"><g><path fill="none" stroke="none"/><text fill="#000000" stroke="none" font-family="Arial" font-size="13px" font-style="normal" font-weight="normal" text-decoration="none" x="831" y="97">*</text></g></g></g></svg>