<svg version="1.1" xmlns="http://www.w3.org/2000/svg" xmlns:xlink="http://www.w3.org/1999/xlink" width="212.130859375" height="62"><defs/><g><g transform="translate(-10,-10) scale(1,1)"><rect fill="#C0C0C0" stroke="none" x="27" y="45" width="182.130859375" height="24" opacity="0.2"/></g><g transform="translate(-10,-10) scale(1,1)"><rect fill="#C0C0C0" stroke="none" x="157.10546875" y="27" width="61.025390625" height="22" opacity="0.2"/></g><g transform="translate(-10,-10) scale(1,1)"><rect fill="#ffffff" stroke="none" x="20" y="38" width="182.130859375" height="24"/></g><g transform="translate(-10,-10) scale(1,1)"><path fill="none" stroke="#000000" d="M 20 38 L 202.130859375 38 L 202.130859375 62 L 20 62 L 20 38 Z Z" stroke-miterlimit="10"/></g><g transform="translate(-10,-10) scale(1,1)"><g><path fill="none" stroke="none"/><text fill="#000000" stroke="none" font-family="Arial" font-size="13px" font-style="italic" font-weight="bold" text-decoration="none" x="41.333251953125" y="57.5">AbstractListenerSupport</text></g></g><g transform="translate(-10,-10) scale(1,1)"><rect fill="#ffffff" stroke="none" x="150.10546875" y="20" width="61.025390625" height="22"/></g><g transform="translate(-10,-10) scale(1,1)"><path fill="none" stroke="#000000" d="M 150.10546875 20 L 211.130859375 20 L 211.130859375 42 L 150.10546875 42 L 150.10546875 20 Z Z" stroke-miterlimit="10" stroke-dasharray="3"/></g><g transform="translate(-10,-10) scale(1,1)"><g><path fill="none" stroke="none"/><text fill="#000000" stroke="none" font-family="Arial" font-size="13px" font-style="normal" font-weight="normal" text-decoration="none" x="155.10546875" y="37.5">L: Object</text></g></g></g></svg>