<svg version="1.1" xmlns="http://www.w3.org/2000/svg" xmlns:xlink="http://www.w3.org/1999/xlink" width="1731.46142578125" height="141"><defs/><g><g transform="translate(-10,-10) scale(1,1)"><rect fill="#C0C0C0" stroke="none" x="638.298095703125" y="48" width="121.4599609375" height="24" opacity="0.2"/></g><g transform="translate(-10,-10) scale(1,1)"><rect fill="#C0C0C0" stroke="none" x="749.646240234375" y="30" width="19.11181640625" height="22" opacity="0.2"/></g><g transform="translate(-10,-10) scale(1,1)"><rect fill="#ffffff" stroke="none" x="631.298095703125" y="41" width="121.4599609375" height="24"/></g><g transform="translate(-10,-10) scale(1,1)"><path fill="none" stroke="#000000" d="M 631.298095703125 41 L 752.758056640625 41 L 752.758056640625 65 L 631.298095703125 65 L 631.298095703125 41 Z Z" stroke-miterlimit="10"/></g><g transform="translate(-10,-10) scale(1,1)"><g><path fill="none" stroke="none"/><text fill="#000000" stroke="none" font-family="Arial" font-size="13px" font-style="italic" font-weight="bold" text-decoration="none" x="649.759033203125" y="60.5">AbstractDialog</text></g></g><g transform="translate(-10,-10) scale(1,1)"><rect fill="#ffffff" stroke="none" x="742.646240234375" y="23" width="19.11181640625" height="22"/></g><g transform="translate(-10,-10) scale(1,1)"><path fill="none" stroke="#000000" d="M 742.646240234375 23 L 761.758056640625 23 L 761.758056640625 45 L 742.646240234375 45 L 742.646240234375 23 Z Z" stroke-miterlimit="10" stroke-dasharray="3"/></g><g transform="translate(-10,-10) scale(1,1)"><g><path fill="none" stroke="none"/><text fill="#000000" stroke="none" font-family="Arial" font-size="13px" font-style="normal" font-weight="normal" text-decoration="none" x="747.646240234375" y="40.5">O</text></g></g><g transform="translate(-10,-10) scale(1,1)"><rect fill="#C0C0C0" stroke="none" x="1088.63525390625" y="124" width="186.47900390625" height="24" opacity="0.2"/></g><g transform="translate(-10,-10) scale(1,1)"><rect fill="#C0C0C0" stroke="none" x="1265.00244140625" y="106" width="19.11181640625" height="22" opacity="0.2"/></g><g transform="translate(-10,-10) scale(1,1)"><rect fill="#ffffff" stroke="none" x="1081.63525390625" y="117" width="186.47900390625" height="24"/></g><g transform="translate(-10,-10) scale(1,1)"><path fill="none" stroke="#000000" d="M 1081.63525390625 117 L 1268.1142578125 117 L 1268.1142578125 141 L 1081.63525390625 141 L 1081.63525390625 117 Z Z" stroke-miterlimit="10"/></g><g transform="translate(-10,-10) scale(1,1)"><g><path fill="none" stroke="none"/><text fill="#000000" stroke="none" font-family="Arial" font-size="13px" font-style="italic" font-weight="bold" text-decoration="none" x="1101.895751953125" y="136.5">AbstractEditCreateDialog</text></g></g><g transform="translate(-10,-10) scale(1,1)"><rect fill="#ffffff" stroke="none" x="1258.00244140625" y="99" width="19.11181640625" height="22"/></g><g transform="translate(-10,-10) scale(1,1)"><path fill="none" stroke="#000000" d="M 1258.00244140625 99 L 1277.1142578125 99 L 1277.1142578125 121 L 1258.00244140625 121 L 1258.00244140625 99 Z Z" stroke-miterlimit="10" stroke-dasharray="3"/></g><g transform="translate(-10,-10) scale(1,1)"><g><path fill="none" stroke="none"/><text fill="#000000" stroke="none" font-family="Arial" font-size="13px" font-style="normal" font-weight="normal" text-decoration="none" x="1263.00244140625" y="116.5">O</text></g></g><g transform="translate(-10,-10) scale(1,1)"><path fill="none" stroke="#000000" d="M 1170 98 Q 1165 84 764 50" stroke-miterlimit="10"/></g><g transform="translate(-10,-10) scale(1,1)"><path fill="#FFFFFF" stroke="none" d="M 784.9639630275201 43.32824954147934 L 764 50 L 783.541400408908 60.1061204256991"/></g><g transform="translate(-10,-10) scale(1,1)"><path fill="none" stroke="#000000" d="M 784.9639630275201 43.32824954147934 L 764 50 L 783.541400408908 60.1061204256991 L 784.9639630275201 43.32824954147934" stroke-miterlimit="10"/></g><g transform="translate(-10,-10) scale(1,1)"><rect fill="#C0C0C0" stroke="none" x="834.3641357421875" y="39" width="142.60546875" height="24" opacity="0.2"/></g><g transform="translate(-10,-10) scale(1,1)"><rect fill="#ffffff" stroke="none" x="827.3641357421875" y="32" width="142.60546875" height="24"/></g><g transform="translate(-10,-10) scale(1,1)"><path fill="none" stroke="#000000" d="M 827.3641357421875 32 L 969.9696044921875 32 L 969.9696044921875 56 L 827.3641357421875 56 L 827.3641357421875 32 Z Z" stroke-miterlimit="10"/></g><g transform="translate(-10,-10) scale(1,1)"><g><path fill="none" stroke="none"/><text fill="#000000" stroke="none" font-family="Arial" font-size="13px" font-style="italic" font-weight="bold" text-decoration="none" x="837.2437744140625" y="51.5">ConditionalFileDialog</text></g></g><g transform="translate(-10,-10) scale(1,1)"><rect fill="#C0C0C0" stroke="none" x="1451.84326171875" y="39" width="151.974609375" height="24" opacity="0.2"/></g><g transform="translate(-10,-10) scale(1,1)"><rect fill="#ffffff" stroke="none" x="1444.84326171875" y="32" width="151.974609375" height="24"/></g><g transform="translate(-10,-10) scale(1,1)"><path fill="none" stroke="#000000" d="M 1444.84326171875 32 L 1596.81787109375 32 L 1596.81787109375 56 L 1444.84326171875 56 L 1444.84326171875 32 Z Z" stroke-miterlimit="10"/></g><g transform="translate(-10,-10) scale(1,1)"><g><path fill="none" stroke="none"/><text fill="#000000" stroke="none" font-family="Arial" font-size="13px" font-style="italic" font-weight="bold" text-decoration="none" x="1455.42431640625" y="51.5">ConditionalInputDialog</text></g></g><g transform="translate(-10,-10) scale(1,1)"><rect fill="#C0C0C0" stroke="none" x="27" y="115" width="144.814453125" height="24" opacity="0.2"/></g><g transform="translate(-10,-10) scale(1,1)"><rect fill="#ffffff" stroke="none" x="20" y="108" width="144.814453125" height="24"/></g><g transform="translate(-10,-10) scale(1,1)"><path fill="none" stroke="#000000" d="M 20 108 L 164.814453125 108 L 164.814453125 132 L 20 132 L 20 108 Z Z" stroke-miterlimit="10"/></g><g transform="translate(-10,-10) scale(1,1)"><g><path fill="none" stroke="none"/><text fill="#000000" stroke="none" font-family="Arial" font-size="13px" font-style="normal" font-weight="bold" text-decoration="none" x="28.089599609375" y="127.5">DefineGenerateDialog</text></g></g><g transform="translate(-10,-10) scale(1,1)"><path fill="none" stroke="#000000" d="M 92 107 Q 93 84 630 48" stroke-miterlimit="10"/></g><g transform="translate(-10,-10) scale(1,1)"><path fill="#FFFFFF" stroke="none" d="M 610.2833110148385 57.759722099650844 L 630 48 L 609.1570298368869 40.95936119520556"/></g><g transform="translate(-10,-10) scale(1,1)"><path fill="none" stroke="#000000" d="M 610.2833110148385 57.759722099650844 L 630 48 L 609.1570298368869 40.95936119520556 L 610.2833110148385 57.759722099650844" stroke-miterlimit="10"/></g><g transform="translate(-10,-10) scale(1,1)"><path fill="#C0C0C0" stroke="none" d="M 1205.374755859375 38.5 C 1205.374755859375 32.1487248 1210.523480659375 27 1216.874755859375 27 C 1223.226031059375 27 1228.374755859375 32.1487248 1228.374755859375 38.5 C 1228.374755859375 44.8512752 1223.226031059375 50 1216.874755859375 50 C 1210.523480659375 50 1205.374755859375 44.8512752 1205.374755859375 38.5 Z" opacity="0.2"/></g><g transform="translate(-10,-10) scale(1,1)"><path fill="#ffffff" stroke="none" d="M 1198.374755859375 31.5 C 1198.374755859375 25.1487248 1203.523480659375 20 1209.874755859375 20 C 1216.226031059375 20 1221.374755859375 25.1487248 1221.374755859375 31.5 C 1221.374755859375 37.8512752 1216.226031059375 43 1209.874755859375 43 C 1203.523480659375 43 1198.374755859375 37.8512752 1198.374755859375 31.5 Z"/></g><g transform="translate(-10,-10) scale(1,1)"><path fill="none" stroke="#000000" d="M 1198.374755859375 31.5 C 1198.374755859375 25.1487248 1203.523480659375 20 1209.874755859375 20 C 1216.226031059375 20 1221.374755859375 25.1487248 1221.374755859375 31.5 C 1221.374755859375 37.8512752 1216.226031059375 43 1209.874755859375 43 C 1203.523480659375 43 1198.374755859375 37.8512752 1198.374755859375 31.5 Z" stroke-miterlimit="10"/></g><g transform="translate(-10,-10) scale(1,1)"><g><path fill="none" stroke="none"/><text fill="#000000" stroke="none" font-family="Arial" font-size="13px" font-style="normal" font-weight="bold" text-decoration="none" x="1172.66162109375" y="62.5">DialogObject</text></g></g><g transform="translate(-10,-10) scale(1,1)"><path fill="none" stroke="#000000" d="M 1189 98 Q 1195 84 1200 69" stroke-miterlimit="10"/></g><g transform="translate(-10,-10) scale(1,1)"><path fill="none" stroke="#000000" d="M 1200.7797792209974 79.97232629693906 L 1200 69 L 1192.7927808450386 77.30999350495277" stroke-miterlimit="10"/></g><g transform="translate(-10,-10) scale(1,1)"><g><path fill="none" stroke="none"/><text fill="#000000" stroke="none" font-family="Arial" font-size="13px" font-style="normal" font-weight="normal" text-decoration="none" x="1136" y="95">-originalObject</text></g></g><g transform="translate(-10,-10) scale(1,1)"><rect fill="#C0C0C0" stroke="none" x="202.814453125" y="124" width="157.5654296875" height="24" opacity="0.2"/></g><g transform="translate(-10,-10) scale(1,1)"><rect fill="#C0C0C0" stroke="none" x="286.6708984375" y="106" width="82.708984375" height="22" opacity="0.2"/></g><g transform="translate(-10,-10) scale(1,1)"><rect fill="#ffffff" stroke="none" x="195.814453125" y="117" width="157.5654296875" height="24"/></g><g transform="translate(-10,-10) scale(1,1)"><path fill="none" stroke="#000000" d="M 195.814453125 117 L 353.3798828125 117 L 353.3798828125 141 L 195.814453125 141 L 195.814453125 117 Z Z" stroke-miterlimit="10"/></g><g transform="translate(-10,-10) scale(1,1)"><g><path fill="none" stroke="none"/><text fill="#000000" stroke="none" font-family="Arial" font-size="13px" font-style="normal" font-weight="bold" text-decoration="none" x="214.621337890625" y="136.5">EnumChooserDialog</text></g></g><g transform="translate(-10,-10) scale(1,1)"><rect fill="#ffffff" stroke="none" x="279.6708984375" y="99" width="82.708984375" height="22"/></g><g transform="translate(-10,-10) scale(1,1)"><path fill="none" stroke="#000000" d="M 279.6708984375 99 L 362.3798828125 99 L 362.3798828125 121 L 279.6708984375 121 L 279.6708984375 99 Z Z" stroke-miterlimit="10" stroke-dasharray="3"/></g><g transform="translate(-10,-10) scale(1,1)"><g><path fill="none" stroke="none"/><text fill="#000000" stroke="none" font-family="Arial" font-size="13px" font-style="normal" font-weight="normal" text-decoration="none" x="284.6708984375" y="116.5">E: Enum&lt;E&gt;</text></g></g><g transform="translate(-10,-10) scale(1,1)"><path fill="none" stroke="#000000" d="M 280 98 Q 280 84 630 50" stroke-miterlimit="10"/></g><g transform="translate(-10,-10) scale(1,1)"><path fill="#FFFFFF" stroke="none" d="M 610.5838966404195 60.344802092359615 L 630 50 L 608.9558619406814 43.58562135976201"/></g><g transform="translate(-10,-10) scale(1,1)"><path fill="none" stroke="#000000" d="M 610.5838966404195 60.344802092359615 L 630 50 L 608.9558619406814 43.58562135976201 L 610.5838966404195 60.344802092359615" stroke-miterlimit="10"/></g><g transform="translate(-10,-10) scale(1,1)"><rect fill="#C0C0C0" stroke="none" x="1474.56787109375" y="115" width="106.525390625" height="24" opacity="0.2"/></g><g transform="translate(-10,-10) scale(1,1)"><rect fill="#ffffff" stroke="none" x="1467.56787109375" y="108" width="106.525390625" height="24"/></g><g transform="translate(-10,-10) scale(1,1)"><path fill="none" stroke="#000000" d="M 1467.56787109375 108 L 1574.09326171875 108 L 1574.09326171875 132 L 1467.56787109375 132 L 1467.56787109375 108 Z Z" stroke-miterlimit="10"/></g><g transform="translate(-10,-10) scale(1,1)"><g><path fill="none" stroke="none"/><text fill="#000000" stroke="none" font-family="Arial" font-size="13px" font-style="normal" font-weight="bold" text-decoration="none" x="1474.591064453125" y="127.5">FileNameDialog</text></g></g><g transform="translate(-10,-10) scale(1,1)"><path fill="none" stroke="#000000" d="M 1520 107 Q 1521 84 1520 57" stroke-miterlimit="10"/></g><g transform="translate(-10,-10) scale(1,1)"><path fill="#FFFFFF" stroke="none" d="M 1529.165542016588 76.99982098775281 L 1520 57 L 1512.3390078702225 77.62302595613673"/></g><g transform="translate(-10,-10) scale(1,1)"><path fill="none" stroke="#000000" d="M 1529.165542016588 76.99982098775281 L 1520 57 L 1512.3390078702225 77.62302595613673 L 1529.165542016588 76.99982098775281" stroke-miterlimit="10"/></g><g transform="translate(-10,-10) scale(1,1)"><rect fill="#C0C0C0" stroke="none" x="1634.81787109375" y="39" width="103.6435546875" height="24" opacity="0.2"/></g><g transform="translate(-10,-10) scale(1,1)"><rect fill="#ffffff" stroke="none" x="1627.81787109375" y="32" width="103.6435546875" height="24"/></g><g transform="translate(-10,-10) scale(1,1)"><path fill="none" stroke="#000000" d="M 1627.81787109375 32 L 1731.46142578125 32 L 1731.46142578125 56 L 1627.81787109375 56 L 1627.81787109375 32 Z Z" stroke-miterlimit="10"/></g><g transform="translate(-10,-10) scale(1,1)"><g><path fill="none" stroke="none"/><text fill="#000000" stroke="none" font-family="Arial" font-size="13px" font-style="normal" font-weight="bold" text-decoration="none" x="1634.837890625" y="51.5">MessageDialog</text></g></g><g transform="translate(-10,-10) scale(1,1)"><rect fill="#C0C0C0" stroke="none" x="401.3798828125" y="115" width="86.2763671875" height="24" opacity="0.2"/></g><g transform="translate(-10,-10) scale(1,1)"><rect fill="#ffffff" stroke="none" x="394.3798828125" y="108" width="86.2763671875" height="24"/></g><g transform="translate(-10,-10) scale(1,1)"><path fill="none" stroke="#000000" d="M 394.3798828125 108 L 480.65625 108 L 480.65625 132 L 394.3798828125 132 L 394.3798828125 108 Z Z" stroke-miterlimit="10"/></g><g transform="translate(-10,-10) scale(1,1)"><g><path fill="none" stroke="none"/><text fill="#000000" stroke="none" font-family="Arial" font-size="13px" font-style="normal" font-weight="bold" text-decoration="none" x="402.11083984375" y="127.5">StringDialog</text></g></g><g transform="translate(-10,-10) scale(1,1)"><path fill="none" stroke="#000000" d="M 437 107 Q 438 84 630 54" stroke-miterlimit="10"/></g><g transform="translate(-10,-10) scale(1,1)"><path fill="#FFFFFF" stroke="none" d="M 611.2180143283954 65.45587247797559 L 630 54 L 608.6186054538749 48.81965568104468"/></g><g transform="translate(-10,-10) scale(1,1)"><path fill="none" stroke="#000000" d="M 611.2180143283954 65.45587247797559 L 630 54 L 608.6186054538749 48.81965568104468 L 611.2180143283954 65.45587247797559" stroke-miterlimit="10"/></g><g transform="translate(-10,-10) scale(1,1)"><rect fill="#C0C0C0" stroke="none" x="518.65625" y="115" width="169.32275390625" height="24" opacity="0.2"/></g><g transform="translate(-10,-10) scale(1,1)"><rect fill="#ffffff" stroke="none" x="511.65625" y="108" width="169.32275390625" height="24"/></g><g transform="translate(-10,-10) scale(1,1)"><path fill="none" stroke="#000000" d="M 511.65625 108 L 680.97900390625 108 L 680.97900390625 132 L 511.65625 132 L 511.65625 108 Z Z" stroke-miterlimit="10"/></g><g transform="translate(-10,-10) scale(1,1)"><g><path fill="none" stroke="none"/><text fill="#000000" stroke="none" font-family="Arial" font-size="13px" font-style="normal" font-weight="bold" text-decoration="none" x="523.697265625" y="127.5">StringListDefinitionDialog</text></g></g><g transform="translate(-10,-10) scale(1,1)"><path fill="none" stroke="#000000" d="M 596 107 Q 597 84 642 66" stroke-miterlimit="10"/></g><g transform="translate(-10,-10) scale(1,1)"><path fill="#FFFFFF" stroke="none" d="M 626.2551378483633 81.3655236105367 L 642 66 L 620.0016352622379 65.73176714522283"/></g><g transform="translate(-10,-10) scale(1,1)"><path fill="none" stroke="#000000" d="M 626.2551378483633 81.3655236105367 L 642 66 L 620.0016352622379 65.73176714522283 L 626.2551378483633 81.3655236105367" stroke-miterlimit="10"/></g><g transform="translate(-10,-10) scale(1,1)"><rect fill="#C0C0C0" stroke="none" x="718.97900390625" y="115" width="171.51904296875" height="24" opacity="0.2"/></g><g transform="translate(-10,-10) scale(1,1)"><rect fill="#ffffff" stroke="none" x="711.97900390625" y="108" width="171.51904296875" height="24"/></g><g transform="translate(-10,-10) scale(1,1)"><path fill="none" stroke="#000000" d="M 711.97900390625 108 L 883.498046875 108 L 883.498046875 132 L 711.97900390625 132 L 711.97900390625 108 Z Z" stroke-miterlimit="10"/></g><g transform="translate(-10,-10) scale(1,1)"><g><path fill="none" stroke="none"/><text fill="#000000" stroke="none" font-family="Arial" font-size="13px" font-style="normal" font-weight="bold" text-decoration="none" x="722.950439453125" y="127.5">StringListGeneratorDialog</text></g></g><g transform="translate(-10,-10) scale(1,1)"><path fill="none" stroke="#000000" d="M 797 107 Q 798 84 753 66" stroke-miterlimit="10"/></g><g transform="translate(-10,-10) scale(1,1)"><path fill="#FFFFFF" stroke="none" d="M 774.9983647377621 65.73176714522283 L 753 66 L 768.7448621516367 81.36552361053668"/></g><g transform="translate(-10,-10) scale(1,1)"><path fill="none" stroke="#000000" d="M 774.9983647377621 65.73176714522283 L 753 66 L 768.7448621516367 81.36552361053668 L 774.9983647377621 65.73176714522283" stroke-miterlimit="10"/></g><g transform="translate(-10,-10) scale(1,1)"><rect fill="#C0C0C0" stroke="none" x="921.498046875" y="115" width="136.13720703125" height="24" opacity="0.2"/></g><g transform="translate(-10,-10) scale(1,1)"><rect fill="#ffffff" stroke="none" x="914.498046875" y="108" width="136.13720703125" height="24"/></g><g transform="translate(-10,-10) scale(1,1)"><path fill="none" stroke="#000000" d="M 914.498046875 108 L 1050.63525390625 108 L 1050.63525390625 132 L 914.498046875 132 L 914.498046875 108 Z Z" stroke-miterlimit="10"/></g><g transform="translate(-10,-10) scale(1,1)"><g><path fill="none" stroke="none"/><text fill="#000000" stroke="none" font-family="Arial" font-size="13px" font-style="normal" font-weight="bold" text-decoration="none" x="922.9462890625" y="127.5">ValueChooserDialog</text></g></g><g transform="translate(-10,-10) scale(1,1)"><path fill="none" stroke="#000000" d="M 982 107 Q 983 84 764 53" stroke-miterlimit="10"/></g><g transform="translate(-10,-10) scale(1,1)"><path fill="#FFFFFF" stroke="none" d="M 785.3047015866481 47.512770252315555 L 764 53 L 782.9447563275909 64.18464159855847"/></g><g transform="translate(-10,-10) scale(1,1)"><path fill="none" stroke="#000000" d="M 785.3047015866481 47.512770252315555 L 764 53 L 782.9447563275909 64.18464159855847 L 785.3047015866481 47.512770252315555" stroke-miterlimit="10"/></g><g transform="translate(-10,-10) scale(1,1)"><rect fill="#C0C0C0" stroke="none" x="1316.1142578125" y="115" width="127.45361328125" height="24" opacity="0.2"/></g><g transform="translate(-10,-10) scale(1,1)"><rect fill="#ffffff" stroke="none" x="1309.1142578125" y="108" width="127.45361328125" height="24"/></g><g transform="translate(-10,-10) scale(1,1)"><path fill="none" stroke="#000000" d="M 1309.1142578125 108 L 1436.56787109375 108 L 1436.56787109375 132 L 1309.1142578125 132 L 1309.1142578125 108 Z Z" stroke-miterlimit="10"/></g><g transform="translate(-10,-10) scale(1,1)"><g><path fill="none" stroke="none"/><text fill="#000000" stroke="none" font-family="Arial" font-size="13px" font-style="normal" font-weight="bold" text-decoration="none" x="1317.914794921875" y="127.5">ValueEditingDialog</text></g></g><g transform="translate(-10,-10) scale(1,1)"><path fill="none" stroke="#000000" d="M 1372 107 Q 1373 84 764 48" stroke-miterlimit="10"/></g><g transform="translate(-10,-10) scale(1,1)"><path fill="#FFFFFF" stroke="none" d="M 784.786739955579 40.7950404568009 L 764 48 L 783.793120532522 57.603769030180445"/></g><g transform="translate(-10,-10) scale(1,1)"><path fill="none" stroke="#000000" d="M 784.786739955579 40.7950404568009 L 764 48 L 783.793120532522 57.603769030180445 L 784.786739955579 40.7950404568009" stroke-miterlimit="10"/></g></g></svg>