<svg version="1.1" xmlns="http://www.w3.org/2000/svg" xmlns:xlink="http://www.w3.org/1999/xlink" width="2266.48388671875" height="68"><defs/><g><g transform="translate(-10,-10) scale(1,1)"><rect fill="#C0C0C0" stroke="none" x="27" y="39" width="71.83544921875" height="24" opacity="0.2"/></g><g transform="translate(-10,-10) scale(1,1)"><rect fill="#ffffff" stroke="none" x="20" y="32" width="71.83544921875" height="24"/></g><g transform="translate(-10,-10) scale(1,1)"><path fill="none" stroke="#000000" d="M 20 32 L 91.83544921875 32 L 91.83544921875 56 L 20 56 L 20 32 Z Z" stroke-miterlimit="10"/></g><g transform="translate(-10,-10) scale(1,1)"><g><path fill="none" stroke="none"/><text fill="#000000" stroke="none" font-family="Arial" font-size="13px" font-style="normal" font-weight="bold" text-decoration="none" x="27.734130859375" y="51.5">Allocation</text></g></g><g transform="translate(-10,-10) scale(1,1)"><rect fill="#C0C0C0" stroke="none" x="129.83544921875" y="39" width="71.13720703125" height="24" opacity="0.2"/></g><g transform="translate(-10,-10) scale(1,1)"><rect fill="#ffffff" stroke="none" x="122.83544921875" y="32" width="71.13720703125" height="24"/></g><g transform="translate(-10,-10) scale(1,1)"><path fill="none" stroke="#000000" d="M 122.83544921875 32 L 193.97265625 32 L 193.97265625 56 L 122.83544921875 56 L 122.83544921875 32 Z Z" stroke-miterlimit="10"/></g><g transform="translate(-10,-10) scale(1,1)"><g><path fill="none" stroke="none"/><text fill="#000000" stroke="none" font-family="Arial" font-size="13px" font-style="normal" font-weight="bold" text-decoration="none" x="130.236328125" y="51.5">ArrayUtils</text></g></g><g transform="translate(-10,-10) scale(1,1)"><path fill="#C0C0C0" stroke="none" d="M 254.225830078125 38.5 C 254.225830078125 32.1487248 259.374554878125 27 265.725830078125 27 C 272.077105278125 27 277.225830078125 32.1487248 277.225830078125 38.5 C 277.225830078125 44.8512752 272.077105278125 50 265.725830078125 50 C 259.374554878125 50 254.225830078125 44.8512752 254.225830078125 38.5 Z" opacity="0.2"/></g><g transform="translate(-10,-10) scale(1,1)"><path fill="#ffffff" stroke="none" d="M 247.225830078125 31.5 C 247.225830078125 25.1487248 252.374554878125 20 258.725830078125 20 C 265.077105278125 20 270.225830078125 25.1487248 270.225830078125 31.5 C 270.225830078125 37.8512752 265.077105278125 43 258.725830078125 43 C 252.374554878125 43 247.225830078125 37.8512752 247.225830078125 31.5 Z"/></g><g transform="translate(-10,-10) scale(1,1)"><path fill="none" stroke="#000000" d="M 247.225830078125 31.5 C 247.225830078125 25.1487248 252.374554878125 20 258.725830078125 20 C 265.077105278125 20 270.225830078125 25.1487248 270.225830078125 31.5 C 270.225830078125 37.8512752 265.077105278125 43 258.725830078125 43 C 252.374554878125 43 247.225830078125 37.8512752 247.225830078125 31.5 Z" stroke-miterlimit="10"/></g><g transform="translate(-10,-10) scale(1,1)"><g><path fill="none" stroke="none"/><text fill="#000000" stroke="none" font-family="Arial" font-size="13px" font-style="normal" font-weight="bold" text-decoration="none" x="231.983154296875" y="62.5">Buildable</text></g></g><g transform="translate(-10,-10) scale(1,1)"><rect fill="#C0C0C0" stroke="none" x="330.47900390625" y="39" width="100.00634765625" height="24" opacity="0.2"/></g><g transform="translate(-10,-10) scale(1,1)"><rect fill="#ffffff" stroke="none" x="323.47900390625" y="32" width="100.00634765625" height="24"/></g><g transform="translate(-10,-10) scale(1,1)"><path fill="none" stroke="#000000" d="M 323.47900390625 32 L 423.4853515625 32 L 423.4853515625 56 L 323.47900390625 56 L 323.47900390625 32 Z Z" stroke-miterlimit="10"/></g><g transform="translate(-10,-10) scale(1,1)"><g><path fill="none" stroke="none"/><text fill="#000000" stroke="none" font-family="Arial" font-size="13px" font-style="normal" font-weight="bold" text-decoration="none" x="332.3017578125" y="51.5">CollectionUtils</text></g></g><g transform="translate(-10,-10) scale(1,1)"><path fill="#C0C0C0" stroke="none" d="M 483.383056640625 38.5 C 483.383056640625 32.1487248 488.531781440625 27 494.883056640625 27 C 501.234331840625 27 506.383056640625 32.1487248 506.383056640625 38.5 C 506.383056640625 44.8512752 501.234331840625 50 494.883056640625 50 C 488.531781440625 50 483.383056640625 44.8512752 483.383056640625 38.5 Z" opacity="0.2"/></g><g transform="translate(-10,-10) scale(1,1)"><path fill="#ffffff" stroke="none" d="M 476.383056640625 31.5 C 476.383056640625 25.1487248 481.531781440625 20 487.883056640625 20 C 494.234331840625 20 499.383056640625 25.1487248 499.383056640625 31.5 C 499.383056640625 37.8512752 494.234331840625 43 487.883056640625 43 C 481.531781440625 43 476.383056640625 37.8512752 476.383056640625 31.5 Z"/></g><g transform="translate(-10,-10) scale(1,1)"><path fill="none" stroke="#000000" d="M 476.383056640625 31.5 C 476.383056640625 25.1487248 481.531781440625 20 487.883056640625 20 C 494.234331840625 20 499.383056640625 25.1487248 499.383056640625 31.5 C 499.383056640625 37.8512752 494.234331840625 43 487.883056640625 43 C 481.531781440625 43 476.383056640625 37.8512752 476.383056640625 31.5 Z" stroke-miterlimit="10"/></g><g transform="translate(-10,-10) scale(1,1)"><g><path fill="none" stroke="none"/><text fill="#000000" stroke="none" font-family="Arial" font-size="13px" font-style="normal" font-weight="bold" text-decoration="none" x="461.14990234375" y="62.5">Filterable</text></g></g><g transform="translate(-10,-10) scale(1,1)"><rect fill="#C0C0C0" stroke="none" x="559.28076171875" y="39" width="81.22998046875" height="24" opacity="0.2"/></g><g transform="translate(-10,-10) scale(1,1)"><rect fill="#ffffff" stroke="none" x="552.28076171875" y="32" width="81.22998046875" height="24"/></g><g transform="translate(-10,-10) scale(1,1)"><path fill="none" stroke="#000000" d="M 552.28076171875 32 L 633.5107421875 32 L 633.5107421875 56 L 552.28076171875 56 L 552.28076171875 32 Z Z" stroke-miterlimit="10"/></g><g transform="translate(-10,-10) scale(1,1)"><g><path fill="none" stroke="none"/><text fill="#000000" stroke="none" font-family="Arial" font-size="13px" font-style="normal" font-weight="bold" text-decoration="none" x="559.672119140625" y="51.5">FormatUtils</text></g></g><g transform="translate(-10,-10) scale(1,1)"><rect fill="#C0C0C0" stroke="none" x="671.5107421875" y="39" width="60.28271484375" height="24" opacity="0.2"/></g><g transform="translate(-10,-10) scale(1,1)"><rect fill="#ffffff" stroke="none" x="664.5107421875" y="32" width="60.28271484375" height="24"/></g><g transform="translate(-10,-10) scale(1,1)"><path fill="none" stroke="#000000" d="M 664.5107421875 32 L 724.79345703125 32 L 724.79345703125 56 L 664.5107421875 56 L 664.5107421875 32 Z Z" stroke-miterlimit="10"/></g><g transform="translate(-10,-10) scale(1,1)"><g><path fill="none" stroke="none"/><text fill="#000000" stroke="none" font-family="Arial" font-size="13px" font-style="normal" font-weight="bold" text-decoration="none" x="671.89892578125" y="51.5">ListUtils</text></g></g><g transform="translate(-10,-10) scale(1,1)"><rect fill="#C0C0C0" stroke="none" x="762.79345703125" y="39" width="63.1708984375" height="24" opacity="0.2"/></g><g transform="translate(-10,-10) scale(1,1)"><rect fill="#ffffff" stroke="none" x="755.79345703125" y="32" width="63.1708984375" height="24"/></g><g transform="translate(-10,-10) scale(1,1)"><path fill="none" stroke="#000000" d="M 755.79345703125 32 L 818.96435546875 32 L 818.96435546875 56 L 755.79345703125 56 L 755.79345703125 32 Z Z" stroke-miterlimit="10"/></g><g transform="translate(-10,-10) scale(1,1)"><g><path fill="none" stroke="none"/><text fill="#000000" stroke="none" font-family="Arial" font-size="13px" font-style="normal" font-weight="bold" text-decoration="none" x="762.09619140625" y="51.5">MapUtils</text></g></g><g transform="translate(-10,-10) scale(1,1)"><rect fill="#C0C0C0" stroke="none" x="856.96435546875" y="39" width="84.84814453125" height="24" opacity="0.2"/></g><g transform="translate(-10,-10) scale(1,1)"><rect fill="#ffffff" stroke="none" x="849.96435546875" y="32" width="84.84814453125" height="24"/></g><g transform="translate(-10,-10) scale(1,1)"><path fill="none" stroke="#000000" d="M 849.96435546875 32 L 934.8125 32 L 934.8125 56 L 849.96435546875 56 L 849.96435546875 32 Z Z" stroke-miterlimit="10"/></g><g transform="translate(-10,-10) scale(1,1)"><g><path fill="none" stroke="none"/><text fill="#000000" stroke="none" font-family="Arial" font-size="13px" font-style="normal" font-weight="bold" text-decoration="none" x="856.62890625" y="51.5">MinMaxByte</text></g></g><g transform="translate(-10,-10) scale(1,1)"><rect fill="#C0C0C0" stroke="none" x="972.8125" y="39" width="90.61181640625" height="24" opacity="0.2"/></g><g transform="translate(-10,-10) scale(1,1)"><rect fill="#ffffff" stroke="none" x="965.8125" y="32" width="90.61181640625" height="24"/></g><g transform="translate(-10,-10) scale(1,1)"><path fill="none" stroke="#000000" d="M 965.8125 32 L 1056.42431640625 32 L 1056.42431640625 56 L 965.8125 56 L 965.8125 32 Z Z" stroke-miterlimit="10"/></g><g transform="translate(-10,-10) scale(1,1)"><g><path fill="none" stroke="none"/><text fill="#000000" stroke="none" font-family="Arial" font-size="13px" font-style="normal" font-weight="bold" text-decoration="none" x="972.829345703125" y="51.5">MinMaxShort</text></g></g><g transform="translate(-10,-10) scale(1,1)"><path fill="#C0C0C0" stroke="none" d="M 1145.203857421875 38.5 C 1145.203857421875 32.1487248 1150.352582221875 27 1156.703857421875 27 C 1163.055132621875 27 1168.203857421875 32.1487248 1168.203857421875 38.5 C 1168.203857421875 44.8512752 1163.055132621875 50 1156.703857421875 50 C 1150.352582221875 50 1145.203857421875 44.8512752 1145.203857421875 38.5 Z" opacity="0.2"/></g><g transform="translate(-10,-10) scale(1,1)"><path fill="#ffffff" stroke="none" d="M 1138.203857421875 31.5 C 1138.203857421875 25.1487248 1143.352582221875 20 1149.703857421875 20 C 1156.055132621875 20 1161.203857421875 25.1487248 1161.203857421875 31.5 C 1161.203857421875 37.8512752 1156.055132621875 43 1149.703857421875 43 C 1143.352582221875 43 1138.203857421875 37.8512752 1138.203857421875 31.5 Z"/></g><g transform="translate(-10,-10) scale(1,1)"><path fill="none" stroke="#000000" d="M 1138.203857421875 31.5 C 1138.203857421875 25.1487248 1143.352582221875 20 1149.703857421875 20 C 1156.055132621875 20 1161.203857421875 25.1487248 1161.203857421875 31.5 C 1161.203857421875 37.8512752 1156.055132621875 43 1149.703857421875 43 C 1143.352582221875 43 1138.203857421875 37.8512752 1138.203857421875 31.5 Z" stroke-miterlimit="10"/></g><g transform="translate(-10,-10) scale(1,1)"><g><path fill="none" stroke="none"/><text fill="#000000" stroke="none" font-family="Arial" font-size="13px" font-style="normal" font-weight="bold" text-decoration="none" x="1095.145751953125" y="62.5">NamedComponent</text></g></g><g transform="translate(-10,-10) scale(1,1)"><rect fill="#C0C0C0" stroke="none" x="1249.9833984375" y="39" width="122.42626953125" height="24" opacity="0.2"/></g><g transform="translate(-10,-10) scale(1,1)"><rect fill="#ffffff" stroke="none" x="1242.9833984375" y="32" width="122.42626953125" height="24"/></g><g transform="translate(-10,-10) scale(1,1)"><path fill="none" stroke="#000000" d="M 1242.9833984375 32 L 1365.40966796875 32 L 1365.40966796875 56 L 1242.9833984375 56 L 1242.9833984375 32 Z Z" stroke-miterlimit="10"/></g><g transform="translate(-10,-10) scale(1,1)"><g><path fill="none" stroke="none"/><text fill="#000000" stroke="none" font-family="Arial" font-size="13px" font-style="normal" font-weight="bold" text-decoration="none" x="1250.730224609375" y="51.5">ObjectSizeFetcher</text></g></g><g transform="translate(-10,-10) scale(1,1)"><rect fill="#C0C0C0" stroke="none" x="1403.40966796875" y="39" width="89.1708984375" height="24" opacity="0.2"/></g><g transform="translate(-10,-10) scale(1,1)"><rect fill="#ffffff" stroke="none" x="1396.40966796875" y="32" width="89.1708984375" height="24"/></g><g transform="translate(-10,-10) scale(1,1)"><path fill="none" stroke="#000000" d="M 1396.40966796875 32 L 1485.58056640625 32 L 1485.58056640625 56 L 1396.40966796875 56 L 1396.40966796875 32 Z Z" stroke-miterlimit="10"/></g><g transform="translate(-10,-10) scale(1,1)"><g><path fill="none" stroke="none"/><text fill="#000000" stroke="none" font-family="Arial" font-size="13px" font-style="normal" font-weight="bold" text-decoration="none" x="1403.788330078125" y="51.5">RandomUtils</text></g></g><g transform="translate(-10,-10) scale(1,1)"><rect fill="#C0C0C0" stroke="none" x="1523.58056640625" y="39" width="113.7490234375" height="24" opacity="0.2"/></g><g transform="translate(-10,-10) scale(1,1)"><rect fill="#ffffff" stroke="none" x="1516.58056640625" y="32" width="113.7490234375" height="24"/></g><g transform="translate(-10,-10) scale(1,1)"><path fill="none" stroke="#000000" d="M 1516.58056640625 32 L 1630.32958984375 32 L 1630.32958984375 56 L 1516.58056640625 56 L 1516.58056640625 32 Z Z" stroke-miterlimit="10"/></g><g transform="translate(-10,-10) scale(1,1)"><g><path fill="none" stroke="none"/><text fill="#000000" stroke="none" font-family="Arial" font-size="13px" font-style="normal" font-weight="bold" text-decoration="none" x="1525.40966796875" y="51.5">SerializationUtils</text></g></g><g transform="translate(-10,-10) scale(1,1)"><rect fill="#C0C0C0" stroke="none" x="1668.32958984375" y="39" width="57.40087890625" height="24" opacity="0.2"/></g><g transform="translate(-10,-10) scale(1,1)"><rect fill="#ffffff" stroke="none" x="1661.32958984375" y="32" width="57.40087890625" height="24"/></g><g transform="translate(-10,-10) scale(1,1)"><path fill="none" stroke="#000000" d="M 1661.32958984375 32 L 1718.73046875 32 L 1718.73046875 56 L 1661.32958984375 56 L 1661.32958984375 32 Z Z" stroke-miterlimit="10"/></g><g transform="translate(-10,-10) scale(1,1)"><g><path fill="none" stroke="none"/><text fill="#000000" stroke="none" font-family="Arial" font-size="13px" font-style="normal" font-weight="bold" text-decoration="none" x="1667.635498046875" y="51.5">SetUtils</text></g></g><g transform="translate(-10,-10) scale(1,1)"><rect fill="#C0C0C0" stroke="none" x="1756.73046875" y="39" width="74.7236328125" height="24" opacity="0.2"/></g><g transform="translate(-10,-10) scale(1,1)"><rect fill="#ffffff" stroke="none" x="1749.73046875" y="32" width="74.7236328125" height="24"/></g><g transform="translate(-10,-10) scale(1,1)"><path fill="none" stroke="#000000" d="M 1749.73046875 32 L 1824.4541015625 32 L 1824.4541015625 56 L 1749.73046875 56 L 1749.73046875 32 Z Z" stroke-miterlimit="10"/></g><g transform="translate(-10,-10) scale(1,1)"><g><path fill="none" stroke="none"/><text fill="#000000" stroke="none" font-family="Arial" font-size="13px" font-style="normal" font-weight="bold" text-decoration="none" x="1757.47412109375" y="51.5">StringUtils</text></g></g><g transform="translate(-10,-10) scale(1,1)"><path fill="#C0C0C0" stroke="none" d="M 1900.60498046875 38.5 C 1900.60498046875 32.1487248 1905.75370526875 27 1912.10498046875 27 C 1918.45625566875 27 1923.60498046875 32.1487248 1923.60498046875 38.5 C 1923.60498046875 44.8512752 1918.45625566875 50 1912.10498046875 50 C 1905.75370526875 50 1900.60498046875 44.8512752 1900.60498046875 38.5 Z" opacity="0.2"/></g><g transform="translate(-10,-10) scale(1,1)"><path fill="#ffffff" stroke="none" d="M 1893.60498046875 31.5 C 1893.60498046875 25.1487248 1898.75370526875 20 1905.10498046875 20 C 1911.45625566875 20 1916.60498046875 25.1487248 1916.60498046875 31.5 C 1916.60498046875 37.8512752 1911.45625566875 43 1905.10498046875 43 C 1898.75370526875 43 1893.60498046875 37.8512752 1893.60498046875 31.5 Z"/></g><g transform="translate(-10,-10) scale(1,1)"><path fill="none" stroke="#000000" d="M 1893.60498046875 31.5 C 1893.60498046875 25.1487248 1898.75370526875 20 1905.10498046875 20 C 1911.45625566875 20 1916.60498046875 25.1487248 1916.60498046875 31.5 C 1916.60498046875 37.8512752 1911.45625566875 43 1905.10498046875 43 C 1898.75370526875 43 1893.60498046875 37.8512752 1893.60498046875 31.5 Z" stroke-miterlimit="10"/></g><g transform="translate(-10,-10) scale(1,1)"><g><path fill="none" stroke="none"/><text fill="#000000" stroke="none" font-family="Arial" font-size="13px" font-style="normal" font-weight="bold" text-decoration="none" x="1863.200927734375" y="62.5">Transformable</text></g></g><g transform="translate(-10,-10) scale(1,1)"><rect fill="#C0C0C0" stroke="none" x="1992.755859375" y="31.5" width="24.41269531250009" height="15" opacity="0.2"/></g><g transform="translate(-10,-10) scale(1,1)"><rect fill="#C0C0C0" stroke="none" x="1992.755859375" y="45.5" width="61.03173828125" height="25" opacity="0.2"/></g><g transform="translate(-10,-10) scale(1,1)"><rect fill="#ffffff" stroke="none" x="1985.755859375" y="39.5" width="61.03173828125" height="24"/></g><g transform="translate(-10,-10) scale(1,1)"><path fill="none" stroke="#000000" d="M 1985.755859375 39.5 L 2046.78759765625 39.5 L 2046.78759765625 63.5 L 1985.755859375 63.5 L 1985.755859375 39.5 Z Z" stroke-miterlimit="10"/></g><g transform="translate(-10,-10) scale(1,1)"><rect fill="#ffffff" stroke="none" x="1985.755859375" y="24.5" width="24.41269531250009" height="15"/></g><g transform="translate(-10,-10) scale(1,1)"><path fill="none" stroke="#000000" d="M 1985.755859375 24.5 L 2010.1685546875 24.5 L 2010.1685546875 39.5 L 1985.755859375 39.5 L 1985.755859375 24.5 Z Z" stroke-miterlimit="10"/></g><g transform="translate(-10,-10) scale(1,1)"><rect fill="#ffffff" stroke="none" x="1985.755859375" y="38.5" width="61.03173828125" height="25"/></g><g transform="translate(-10,-10) scale(1,1)"><path fill="none" stroke="#000000" d="M 1985.755859375 38.5 L 2046.78759765625 38.5 L 2046.78759765625 63.5 L 1985.755859375 63.5 L 1985.755859375 38.5 Z Z" stroke-miterlimit="10"/></g><g transform="translate(-10,-10) scale(1,1)"><g><path fill="none" stroke="none"/><text fill="#000000" stroke="none" font-family="Arial" font-size="13px" font-style="normal" font-weight="bold" text-decoration="none" x="1991.69677734375" y="59">soabase</text></g></g><g transform="translate(-10,-10) scale(1,1)"><rect fill="#C0C0C0" stroke="none" x="2084.78759765625" y="31.5" width="43.478515625" height="15" opacity="0.2"/></g><g transform="translate(-10,-10) scale(1,1)"><rect fill="#C0C0C0" stroke="none" x="2084.78759765625" y="45.5" width="108.6962890625" height="25" opacity="0.2"/></g><g transform="translate(-10,-10) scale(1,1)"><rect fill="#ffffff" stroke="none" x="2077.78759765625" y="39.5" width="108.6962890625" height="24"/></g><g transform="translate(-10,-10) scale(1,1)"><path fill="none" stroke="#000000" d="M 2077.78759765625 39.5 L 2186.48388671875 39.5 L 2186.48388671875 63.5 L 2077.78759765625 63.5 L 2077.78759765625 39.5 Z Z" stroke-miterlimit="10"/></g><g transform="translate(-10,-10) scale(1,1)"><rect fill="#ffffff" stroke="none" x="2077.78759765625" y="24.5" width="43.478515625" height="15"/></g><g transform="translate(-10,-10) scale(1,1)"><path fill="none" stroke="#000000" d="M 2077.78759765625 24.5 L 2121.26611328125 24.5 L 2121.26611328125 39.5 L 2077.78759765625 39.5 L 2077.78759765625 24.5 Z Z" stroke-miterlimit="10"/></g><g transform="translate(-10,-10) scale(1,1)"><rect fill="#ffffff" stroke="none" x="2077.78759765625" y="38.5" width="108.6962890625" height="25"/></g><g transform="translate(-10,-10) scale(1,1)"><path fill="none" stroke="#000000" d="M 2077.78759765625 38.5 L 2186.48388671875 38.5 L 2186.48388671875 63.5 L 2077.78759765625 63.5 L 2077.78759765625 38.5 Z Z" stroke-miterlimit="10"/></g><g transform="translate(-10,-10) scale(1,1)"><g><path fill="none" stroke="none"/><text fill="#000000" stroke="none" font-family="Arial" font-size="13px" font-style="normal" font-weight="bold" text-decoration="none" x="2085.877197265625" y="59">valuegeneration</text></g></g><g transform="translate(-10,-10) scale(1,1)"><rect fill="#C0C0C0" stroke="none" x="2224.48388671875" y="31.5" width="19.59999999999991" height="15" opacity="0.2"/></g><g transform="translate(-10,-10) scale(1,1)"><rect fill="#C0C0C0" stroke="none" x="2224.48388671875" y="45.5" width="49" height="25" opacity="0.2"/></g><g transform="translate(-10,-10) scale(1,1)"><rect fill="#ffffff" stroke="none" x="2217.48388671875" y="39.5" width="49" height="24"/></g><g transform="translate(-10,-10) scale(1,1)"><path fill="none" stroke="#000000" d="M 2217.48388671875 39.5 L 2266.48388671875 39.5 L 2266.48388671875 63.5 L 2217.48388671875 63.5 L 2217.48388671875 39.5 Z Z" stroke-miterlimit="10"/></g><g transform="translate(-10,-10) scale(1,1)"><rect fill="#ffffff" stroke="none" x="2217.48388671875" y="24.5" width="19.59999999999991" height="15"/></g><g transform="translate(-10,-10) scale(1,1)"><path fill="none" stroke="#000000" d="M 2217.48388671875 24.5 L 2237.08388671875 24.5 L 2237.08388671875 39.5 L 2217.48388671875 39.5 L 2217.48388671875 24.5 Z Z" stroke-miterlimit="10"/></g><g transform="translate(-10,-10) scale(1,1)"><rect fill="#ffffff" stroke="none" x="2217.48388671875" y="38.5" width="49" height="25"/></g><g transform="translate(-10,-10) scale(1,1)"><path fill="none" stroke="#000000" d="M 2217.48388671875 38.5 L 2266.48388671875 38.5 L 2266.48388671875 63.5 L 2217.48388671875 63.5 L 2217.48388671875 38.5 Z Z" stroke-miterlimit="10"/></g><g transform="translate(-10,-10) scale(1,1)"><g><path fill="none" stroke="none"/><text fill="#000000" stroke="none" font-family="Arial" font-size="13px" font-style="normal" font-weight="bold" text-decoration="none" x="2233.6748046875" y="59">wd</text></g></g></g></svg>